999
dxfrw 0.6.3
  0
SECTION
  2
HEADER
  9
$ACADVER
  1
AC1021
  9
$DWGCODEPAGE
  3
ANSI_1252
  9
$INSBASE
 10
0
 20
0
 30
0
  9
$EXTMIN
 10
134.8945
 20
-7.55134
 30
0
  9
$EXTMAX
 10
322.4695
 20
122.62805
 30
0
  9
$LIMMIN
 10
0
 20
0
  9
$LIMMAX
 10
420
 20
297
  9
$ORTHOMODE
 70
    0
  9
$REGENMODE
 70
    1
  9
$FILLMODE
 70
    0
  9
$QTEXTMODE
 70
    0
  9
$MIRRTEXT
 70
    0
  9
$LTSCALE
 40
1
  9
$ATTMODE
 70
    0
  9
$TEXTSIZE
 40
2.5
  9
$TRACEWID
 40
15.68
  9
$TEXTSTYLE
  7
STANDARD
  9
$CLAYER
  8
0
  9
$CELTYPE
  6
BYLAYER
  9
$CECOLOR
 62
  256
  9
$CELTSCALE
 40
1
  9
$DISPSILH
 70
    0
  9
$DIMSCALE
 40
2.5
  9
$DIMASZ
 40
2.5
  9
$DIMEXO
 40
0.625
  9
$DIMDLI
 40
3.75
  9
$DIMRND
 40
0
  9
$DIMDLE
 40
0
  9
$DIMEXE
 40
1.25
  9
$DIMTP
 40
0
  9
$DIMTM
 40
0
  9
$DIMTXT
 40
2.5
  9
$DIMCEN
 40
2.5
  9
$DIMTSZ
 40
0
  9
$DIMTOL
 70
    0
  9
$DIMLIM
 70
    0
  9
$DIMTIH
 70
    0
  9
$DIMTOH
 70
    0
  9
$DIMSE1
 70
    0
  9
$DIMSE2
 70
    0
  9
$DIMTAD
 70
    1
  9
$DIMZIN
 70
    8
  9
$DIMBLK
  1

  9
$DIMASO
 70
    1
  9
$DIMSHO
 70
    1
  9
$DIMPOST
  1

  9
$DIMAPOST
  1

  9
$DIMALT
 70
    0
  9
$DIMALTD
 70
    3
  9
$DIMALTF
 40
0.03937
  9
$DIMLFAC
 40
1
  9
$DIMTOFL
 70
    1
  9
$DIMTVP
 40
0
  9
$DIMTIX
 70
    0
  9
$DIMSOXD
 70
    0
  9
$DIMSAH
 70
    0
  9
$DIMBLK1
  1

  9
$DIMBLK2
  1

  9
$DIMSTYLE
  2
Standard
  9
$DIMCLRD
 70
    0
  9
$DIMCLRE
 70
    0
  9
$DIMCLRT
 70
    0
  9
$DIMTFAC
 40
1
  9
$DIMGAP
 40
0.625
  9
$DIMJUST
 70
    0
  9
$DIMSD1
 70
    0
  9
$DIMSD2
 70
    0
  9
$DIMTOLJ
 70
    0
  9
$DIMTZIN
 70
    8
  9
$DIMALTZ
 70
    0
  9
$DIMALTTZ
 70
    0
  9
$DIMUPT
 70
    0
  9
$DIMDEC
 70
    2
  9
$DIMTDEC
 70
    2
  9
$DIMALTU
 70
    2
  9
$DIMALTTD
 70
    3
  9
$DIMTXSTY
  7
STANDARD
  9
$DIMAUNIT
 70
    0
  9
$DIMADEC
 70
    0
  9
$DIMALTRND
 40
0
  9
$DIMAZIN
 70
    0
  9
$DIMDSEP
 70
   44
  9
$DIMATFIT
 70
    3
  9
$DIMFRAC
 70
    0
  9
$DIMLDRBLK
  1
STANDARD
  9
$DIMLUNIT
 70
    2
  9
$DIMLWD
 70
   -2
  9
$DIMLWE
 70
   -2
  9
$DIMTMOVE
 70
    0
  9
$DIMFXL
 40
1
  9
$DIMFXLON
 70
    0
  9
$DIMJOGANG
 40
0.7854
  9
$DIMTFILL
 70
    0
  9
$DIMTFILLCLR
 70
    0
  9
$DIMARCSYM
 70
    0
  9
$DIMLTYPE
  6

  9
$DIMLTEX1
  6

  9
$DIMLTEX2
  6

  9
$LUNITS
 70
    2
  9
$LUPREC
 70
    4
  9
$SKETCHINC
 40
1
  9
$FILLETRAD
 40
0
  9
$AUNITS
 70
    0
  9
$AUPREC
 70
    2
  9
$MENU
  1
.
  9
$ELEVATION
 40
0
  9
$PELEVATION
 40
0
  9
$THICKNESS
 40
0
  9
$LIMCHECK
 70
    0
  9
$CHAMFERA
 40
0
  9
$CHAMFERB
 40
0
  9
$CHAMFERC
 40
0
  9
$CHAMFERD
 40
0
  9
$SKPOLY
 70
    0
  9
$USRTIMER
 70
    1
  9
$ANGBASE
 50
0
  9
$ANGDIR
 70
    0
  9
$PDMODE
 70
   34
  9
$PDSIZE
 40
0
  9
$PLINEWID
 40
0
  9
$SPLFRAME
 70
    1
  9
$SPLINETYPE
 70
    2
  9
$SPLINESEGS
 70
    8
  9
$HANDSEED
  5
20000
  9
$SURFTAB1
 70
    6
  9
$SURFTAB2
 70
    6
  9
$SURFTYPE
 70
    6
  9
$SURFU
 70
    6
  9
$SURFV
 70
    6
  9
$UCSBASE
  2

  9
$UCSNAME
  2

  9
$UCSORG
 10
0
 20
0
 30
0
  9
$UCSXDIR
 10
1
 20
0
 30
0
  9
$UCSYDIR
 10
0
 20
1
 30
0
  9
$UCSORTHOREF
  2

  9
$UCSORTHOVIEW
 70
    0
  9
$UCSORGTOP
 10
0
 20
0
 30
0
  9
$UCSORGBOTTOM
 10
0
 20
0
 30
0
  9
$UCSORGLEFT
 10
0
 20
0
 30
0
  9
$UCSORGRIGHT
 10
0
 20
0
 30
0
  9
$UCSORGFRONT
 10
0
 20
0
 30
0
  9
$UCSORGBACK
 10
0
 20
0
 30
0
  9
$PUCSBASE
  2

  9
$PUCSNAME
  2

  9
$PUCSORG
 10
0
 20
0
 30
0
  9
$PUCSXDIR
 10
1
 20
0
 30
0
  9
$PUCSYDIR
 10
0
 20
1
 30
0
  9
$PUCSORTHOREF
  2

  9
$PUCSORTHOVIEW
 70
    0
  9
$PUCSORGTOP
 10
0
 20
0
 30
0
  9
$PUCSORGBOTTOM
 10
0
 20
0
 30
0
  9
$PUCSORGLEFT
 10
0
 20
0
 30
0
  9
$PUCSORGRIGHT
 10
0
 20
0
 30
0
  9
$PUCSORGFRONT
 10
0
 20
0
 30
0
  9
$PUCSORGBACK
 10
0
 20
0
 30
0
  9
$USERI1
 70
    0
  9
$USERI2
 70
    0
  9
$USERI3
 70
    0
  9
$USERI4
 70
    0
  9
$USERI5
 70
    0
  9
$USERR1
 40
0
  9
$USERR2
 40
0
  9
$USERR3
 40
0
  9
$USERR4
 40
0
  9
$USERR5
 40
0
  9
$WORLDVIEW
 70
    1
  9
$SHADEDGE
 70
    3
  9
$SHADEDIF
 70
   70
  9
$TILEMODE
 70
    1
  9
$MAXACTVP
 70
   64
  9
$PINSBASE
 10
0
 20
0
 30
0
  9
$PLIMCHECK
 70
    0
  9
$PEXTMIN
 10
0
 20
0
 30
0
  9
$PEXTMAX
 10
0
 20
0
 30
0
  9
$GRIDMODE
 70
    1
  9
$SNAPSTYLE
 70
    0
  9
$PLIMMIN
 10
0
 20
0
  9
$PLIMMAX
 10
210
 20
297
  9
$UNITMODE
 70
    0
  9
$VISRETAIN
 70
    1
  9
$PLINEGEN
 70
    0
  9
$PSLTSCALE
 70
    1
  9
$TREEDEPTH
 70
 3020
  9
$CMLSTYLE
  2
Standard
  9
$CMLJUST
 70
    0
  9
$CMLSCALE
 40
20
  9
$PROXYGRAPHICS
 70
    1
  9
$MEASUREMENT
 70
    1
  9
$CELWEIGHT
370
   -1
  9
$ENDCAPS
280
    0
  9
$JOINSTYLE
280
    0
  9
$LWDISPLAY
290
    0
  9
$INSUNITS
 70
    4
  9
$HYPERLINKBASE
  1

  9
$STYLESHEET
  1

  9
$XEDIT
290
    1
  9
$CEPSNTYPE
380
    0
  9
$PSTYLEMODE
290
    1
  9
$EXTNAMES
290
    1
  9
$PSVPSCALE
 40
1
  9
$OLESTARTUP
290
    0
  9
$SORTENTS
280
  127
  9
$INDEXCTL
280
    0
  9
$HIDETEXT
280
    1
  9
$XCLIPFRAME
290
    0
  9
$HALOGAP
280
    0
  9
$OBSCOLOR
 70
  257
  9
$OBSLTYPE
280
    0
  9
$INTERSECTIONDISPLAY
280
    0
  9
$INTERSECTIONCOLOR
 70
  257
  9
$DIMASSOC
280
    1
  9
$PROJECTNAME
  1

  9
$CAMERADISPLAY
290
    0
  9
$LENSLENGTH
 40
50
  9
$CAMERAHEIGHT
 40
0
  9
$STEPSPERSEC
 40
2
  9
$STEPSIZE
 40
50
  9
$3DDWFPREC
 40
2
  9
$PSOLWIDTH
 40
5
  9
$PSOLHEIGHT
 40
80
  9
$LOFTANG1
 40
1.570796326794897
  9
$LOFTANG2
 40
1.570796326794897
  9
$LOFTMAG1
 40
0
  9
$LOFTMAG2
 40
0
  9
$LOFTPARAM
 70
    7
  9
$LOFTNORMALS
280
    1
  9
$LATITUDE
 40
1
  9
$LONGITUDE
 40
1
  9
$NORTHDIRECTION
 40
0
  9
$TIMEZONE
 70
-8000
  9
$LIGHTGLYPHDISPLAY
280
    1
  9
$TILEMODELIGHTSYNCH
280
    1
  9
$SOLIDHIST
280
    1
  9
$SHOWHIST
280
    1
  9
$DWFFRAME
280
    2
  9
$DGNFRAME
280
    0
  9
$REALWORLDSCALE
290
    1
  9
$INTERFERECOLOR
 62
    1
  9
$CSHADOW
280
    0
  9
$SHADOWPLANELOCATION
 40
0
  0
ENDSEC
  0
SECTION
  2
CLASSES
  0
ENDSEC
  0
SECTION
  2
TABLES
  0
TABLE
  2
VPORT
  5
8
330
0
100
AcDbSymbolTable
 70
    1
  0
VPORT
  5
31
330
2
100
AcDbSymbolTableRecord
100
AcDbViewportTableRecord
  2
*ACTIVE
 70
    0
 10
0
 20
0
 11
1
 21
1
 12
218.6444050087787
 22
101.7890759452634
 13
0
 23
0
 14
10
 24
10
 15
10
 25
10
 16
0
 26
0
 36
1
 17
0
 27
0
 37
0
 40
313.0840891890412
 41
1.651408450704225
 42
50
 43
0
 44
0
 50
0
 51
0
 71
    0
 72
  100
 73
    1
 74
    3
 75
    0
 76
    1
 77
    0
 78
    0
281
    0
 65
    1
110
0
120
0
130
0
111
1
121
0
131
0
112
0
122
1
132
0
 79
    0
146
0
348
10020
 60
    7
 61
    5
292
1
282
    1
141
0
142
0
 63
  250
421
3358443
  0
ENDTAB
  0
TABLE
  2
LTYPE
  5
5
330
0
100
AcDbSymbolTable
 70
    4
  0
LTYPE
  5
14
330
5
100
AcDbSymbolTableRecord
100
AcDbLinetypeTableRecord
  2
ByBlock
 70
    0
  3

 72
   65
 73
    0
 40
0
  0
LTYPE
  5
15
330
5
100
AcDbSymbolTableRecord
100
AcDbLinetypeTableRecord
  2
ByLayer
 70
    0
  3

 72
   65
 73
    0
 40
0
  0
LTYPE
  5
16
330
5
100
AcDbSymbolTableRecord
100
AcDbLinetypeTableRecord
  2
Continuous
 70
    0
  3
Solid line
 72
   65
 73
    0
 40
0
  0
LTYPE
  5
32
330
5
100
AcDbSymbolTableRecord
100
AcDbLinetypeTableRecord
  2
DOT
 70
    0
  3
Dot . . . . . . . . . . . . . . . . . . . . . .
 72
   65
 73
    2
 40
6.35
 49
0
 74
    0
 49
-6.35
 74
    0
  0
LTYPE
  5
33
330
5
100
AcDbSymbolTableRecord
100
AcDbLinetypeTableRecord
  2
DOTTINY
 70
    0
  3
Dot (.15x) .....................................
 72
   65
 73
    2
 40
0.9525
 49
0
 74
    0
 49
-0.9525
 74
    0
  0
LTYPE
  5
34
330
5
100
AcDbSymbolTableRecord
100
AcDbLinetypeTableRecord
  2
DOT2
 70
    0
  3
Dot (.5x) .....................................
 72
   65
 73
    2
 40
3.175
 49
0
 74
    0
 49
-3.175
 74
    0
  0
LTYPE
  5
35
330
5
100
AcDbSymbolTableRecord
100
AcDbLinetypeTableRecord
  2
DOTX2
 70
    0
  3
Dot (2x) .  .  .  .  .  .  .  .  .  .  .  .  .
 72
   65
 73
    2
 40
12.7
 49
0
 74
    0
 49
-12.7
 74
    0
  0
LTYPE
  5
36
330
5
100
AcDbSymbolTableRecord
100
AcDbLinetypeTableRecord
  2
DASHED
 70
    0
  3
Dashed _ _ _ _ _ _ _ _ _ _ _ _ _ _ _ _ _
 72
   65
 73
    2
 40
19.05
 49
12.7
 74
    0
 49
-6.35
 74
    0
  0
LTYPE
  5
37
330
5
100
AcDbSymbolTableRecord
100
AcDbLinetypeTableRecord
  2
DASHEDTINY
 70
    0
  3
Dashed (.15x) _ _ _ _ _ _ _ _ _ _ _ _ _ _ _ _ _
 72
   65
 73
    2
 40
2.8575
 49
1.905
 74
    0
 49
-0.9525
 74
    0
  0
LTYPE
  5
38
330
5
100
AcDbSymbolTableRecord
100
AcDbLinetypeTableRecord
  2
DASHED2
 70
    0
  3
Dashed (.5x) _ _ _ _ _ _ _ _ _ _ _ _ _ _ _ _ _
 72
   65
 73
    2
 40
9.524999999999999
 49
6.35
 74
    0
 49
-3.175
 74
    0
  0
LTYPE
  5
39
330
5
100
AcDbSymbolTableRecord
100
AcDbLinetypeTableRecord
  2
DASHEDX2
 70
    0
  3
Dashed (2x) ____  ____  ____  ____  ____  ___
 72
   65
 73
    2
 40
38.09999999999999
 49
25.4
 74
    0
 49
-12.7
 74
    0
  0
LTYPE
  5
3A
330
5
100
AcDbSymbolTableRecord
100
AcDbLinetypeTableRecord
  2
DASHDOT
 70
    0
  3
Dash dot __ . __ . __ . __ . __ . __ . __ . __
 72
   65
 73
    4
 40
25.4
 49
12.7
 74
    0
 49
-6.35
 74
    0
 49
0
 74
    0
 49
-6.35
 74
    0
  0
LTYPE
  5
3B
330
5
100
AcDbSymbolTableRecord
100
AcDbLinetypeTableRecord
  2
DASHDOTTINY
 70
    0
  3
Dash dot (.15x) _._._._._._._._._._._._._._._.
 72
   65
 73
    4
 40
3.81
 49
1.905
 74
    0
 49
-0.9525
 74
    0
 49
0
 74
    0
 49
-0.9525
 74
    0
  0
LTYPE
  5
3C
330
5
100
AcDbSymbolTableRecord
100
AcDbLinetypeTableRecord
  2
DASHDOT2
 70
    0
  3
Dash dot (.5x) _._._._._._._._._._._._._._._.
 72
   65
 73
    4
 40
12.7
 49
6.35
 74
    0
 49
-3.175
 74
    0
 49
0
 74
    0
 49
-3.175
 74
    0
  0
LTYPE
  5
3D
330
5
100
AcDbSymbolTableRecord
100
AcDbLinetypeTableRecord
  2
DASHDOTX2
 70
    0
  3
Dash dot (2x) ____  .  ____  .  ____  .  ___
 72
   65
 73
    4
 40
50.8
 49
25.4
 74
    0
 49
-12.7
 74
    0
 49
0
 74
    0
 49
-12.7
 74
    0
  0
LTYPE
  5
3E
330
5
100
AcDbSymbolTableRecord
100
AcDbLinetypeTableRecord
  2
DIVIDE
 70
    0
  3
Divide ____ . . ____ . . ____ . . ____ . . ____
 72
   65
 73
    6
 40
31.75
 49
12.7
 74
    0
 49
-6.35
 74
    0
 49
0
 74
    0
 49
-6.35
 74
    0
 49
0
 74
    0
 49
-6.35
 74
    0
  0
LTYPE
  5
3F
330
5
100
AcDbSymbolTableRecord
100
AcDbLinetypeTableRecord
  2
DIVIDETINY
 70
    0
  3
Divide (.15x) __..__..__..__..__..__..__..__.._
 72
   65
 73
    6
 40
4.7625
 49
1.905
 74
    0
 49
-0.9525
 74
    0
 49
0
 74
    0
 49
-0.9525
 74
    0
 49
0
 74
    0
 49
-0.9525
 74
    0
  0
LTYPE
  5
40
330
5
100
AcDbSymbolTableRecord
100
AcDbLinetypeTableRecord
  2
DIVIDE2
 70
    0
  3
Divide (.5x) __..__..__..__..__..__..__..__.._
 72
   65
 73
    6
 40
15.875
 49
6.35
 74
    0
 49
-3.175
 74
    0
 49
0
 74
    0
 49
-3.175
 74
    0
 49
0
 74
    0
 49
-3.175
 74
    0
  0
LTYPE
  5
41
330
5
100
AcDbSymbolTableRecord
100
AcDbLinetypeTableRecord
  2
DIVIDEX2
 70
    0
  3
Divide (2x) ________  .  .  ________  .  .  _
 72
   65
 73
    6
 40
63.5
 49
25.4
 74
    0
 49
-12.7
 74
    0
 49
0
 74
    0
 49
-12.7
 74
    0
 49
0
 74
    0
 49
-12.7
 74
    0
  0
LTYPE
  5
42
330
5
100
AcDbSymbolTableRecord
100
AcDbLinetypeTableRecord
  2
BORDER
 70
    0
  3
Border __ __ . __ __ . __ __ . __ __ . __ __ .
 72
   65
 73
    6
 40
44.45
 49
12.7
 74
    0
 49
-6.35
 74
    0
 49
12.7
 74
    0
 49
-6.35
 74
    0
 49
0
 74
    0
 49
-6.35
 74
    0
  0
LTYPE
  5
43
330
5
100
AcDbSymbolTableRecord
100
AcDbLinetypeTableRecord
  2
BORDERTINY
 70
    0
  3
Border (.15x) __.__.__.__.__.__.__.__.__.__.__.
 72
   65
 73
    6
 40
6.6675
 49
1.905
 74
    0
 49
-0.9525
 74
    0
 49
1.905
 74
    0
 49
-0.9525
 74
    0
 49
0
 74
    0
 49
-0.9525
 74
    0
  0
LTYPE
  5
44
330
5
100
AcDbSymbolTableRecord
100
AcDbLinetypeTableRecord
  2
BORDER2
 70
    0
  3
Border (.5x) __.__.__.__.__.__.__.__.__.__.__.
 72
   65
 73
    6
 40
22.225
 49
6.35
 74
    0
 49
-3.175
 74
    0
 49
6.35
 74
    0
 49
-3.175
 74
    0
 49
0
 74
    0
 49
-3.175
 74
    0
  0
LTYPE
  5
45
330
5
100
AcDbSymbolTableRecord
100
AcDbLinetypeTableRecord
  2
BORDERX2
 70
    0
  3
Border (2x) ____  ____  .  ____  ____  .  ___
 72
   65
 73
    6
 40
88.89999999999999
 49
25.4
 74
    0
 49
-12.7
 74
    0
 49
25.4
 74
    0
 49
-12.7
 74
    0
 49
0
 74
    0
 49
-12.7
 74
    0
  0
LTYPE
  5
46
330
5
100
AcDbSymbolTableRecord
100
AcDbLinetypeTableRecord
  2
CENTER
 70
    0
  3
Center ____ _ ____ _ ____ _ ____ _ ____ _ ____
 72
   65
 73
    4
 40
50.8
 49
31.75
 74
    0
 49
-6.35
 74
    0
 49
6.35
 74
    0
 49
-6.35
 74
    0
  0
LTYPE
  5
47
330
5
100
AcDbSymbolTableRecord
100
AcDbLinetypeTableRecord
  2
CENTERTINY
 70
    0
  3
Center (.15x) ___ _ ___ _ ___ _ ___ _ ___ _ ___
 72
   65
 73
    4
 40
7.619999999999999
 49
4.7625
 74
    0
 49
-0.9525
 74
    0
 49
0.9525
 74
    0
 49
-0.9525
 74
    0
  0
LTYPE
  5
48
330
5
100
AcDbSymbolTableRecord
100
AcDbLinetypeTableRecord
  2
CENTER2
 70
    0
  3
Center (.5x) ___ _ ___ _ ___ _ ___ _ ___ _ ___
 72
   65
 73
    4
 40
28.575
 49
19.05
 74
    0
 49
-3.175
 74
    0
 49
3.175
 74
    0
 49
-3.175
 74
    0
  0
LTYPE
  5
49
330
5
100
AcDbSymbolTableRecord
100
AcDbLinetypeTableRecord
  2
CENTERX2
 70
    0
  3
Center (2x) ________  __  ________  __  _____
 72
   65
 73
    4
 40
101.6
 49
63.5
 74
    0
 49
-12.7
 74
    0
 49
12.7
 74
    0
 49
-12.7
 74
    0
  0
ENDTAB
  0
TABLE
  2
LAYER
  5
2
330
0
100
AcDbSymbolTable
 70
    1
  0
LAYER
  5
10
330
2
100
AcDbSymbolTableRecord
100
AcDbLayerTableRecord
  2
0
 70
    0
 62
    7
  6
CONTINUOUS
370
   -3
390
F
  0
ENDTAB
  0
TABLE
  2
STYLE
  5
3
330
0
100
AcDbSymbolTable
 70
    3
  0
STYLE
  5
4A
330
2
100
AcDbSymbolTableRecord
100
AcDbTextStyleTableRecord
  2
Standard
 70
    0
 40
0
 41
1
 50
0
 71
    0
 42
1
  3
txt
  4

  0
ENDTAB
  0
TABLE
  2
VIEW
  5
6
330
0
100
AcDbSymbolTable
 70
    0
  0
ENDTAB
  0
TABLE
  2
UCS
  5
7
330
0
100
AcDbSymbolTable
 70
    0
  0
ENDTAB
  0
TABLE
  2
APPID
  5
9
330
0
100
AcDbSymbolTable
 70
    1
  0
APPID
  5
12
330
9
100
AcDbSymbolTableRecord
100
AcDbRegAppTableRecord
  2
ACAD
 70
    0
  0
APPID
  5
4B
330
9
100
AcDbSymbolTableRecord
100
AcDbRegAppTableRecord
  2
LibreCad
 70
    0
  0
ENDTAB
  0
TABLE
  2
DIMSTYLE
  5
A
330
0
100
AcDbSymbolTable
 70
    1
100
AcDbDimStyleTable
 71
    1
  0
DIMSTYLE
105
4C
330
A
100
AcDbSymbolTableRecord
100
AcDbDimStyleTableRecord
  2
Standard
 70
    0
 40
2.5
 41
2.5
 42
0.625
 43
0.38
 44
1.25
 45
0
 46
0
 47
0
 48
0
 49
1
140
2.5
141
0.09
142
0
143
25.4
144
1
145
0
146
1
147
0.625
148
0
 71
    0
 72
    0
 73
    0
 74
    1
 75
    0
 76
    0
 77
    0
 78
    8
 79
    0
170
    0
171
    2
172
    0
173
    0
174
    0
175
    0
176
    0
177
    0
178
    0
179
    0
271
    2
272
    4
273
    2
274
    2
275
    0
276
    0
277
    2
278
   44
279
    0
280
    0
281
    0
282
    0
283
    1
284
    0
285
    0
286
    0
288
    0
289
    3
340
STANDARD
341

371
   -2
372
   -2
  0
ENDTAB
  0
TABLE
  2
BLOCK_RECORD
  5
1
330
0
100
AcDbSymbolTable
 70
    2
  0
BLOCK_RECORD
  5
1F
330
1
100
AcDbSymbolTableRecord
100
AcDbBlockTableRecord
  2
*Model_Space
 70
    0
280
    1
281
    0
  0
BLOCK_RECORD
  5
1E
330
1
100
AcDbSymbolTableRecord
100
AcDbBlockTableRecord
  2
*Paper_Space
 70
    0
280
    1
281
    0
  0
ENDTAB
  0
ENDSEC
  0
SECTION
  2
BLOCKS
  0
BLOCK
  5
20
330
1F
100
AcDbEntity
  8
0
100
AcDbBlockBegin
  2
*Model_Space
 70
    0
 10
0
 20
0
 30
0
  3
*Model_Space
  1

  0
ENDBLK
  5
21
330
1F
100
AcDbEntity
  8
0
100
AcDbBlockEnd
  0
BLOCK
  5
1C
330
1B
100
AcDbEntity
  8
0
100
AcDbBlockBegin
  2
*Paper_Space
 70
    0
 10
0
 20
0
 30
0
  3
*Paper_Space
  1

  0
ENDBLK
  5
1D
330
1F
100
AcDbEntity
  8
0
100
AcDbBlockEnd
  0
ENDSEC
  0
SECTION
  2
ENTITIES
  0
LINE
  5
4D
100
AcDbEntity
  8
0
  6
ByLayer
 62
    0
370
   -1
100
AcDbLine
 10
155.02
 20
17.0491
 11
155.02
 21
12.3486
  0
LINE
  5
4E
100
AcDbEntity
  8
0
  6
ByLayer
 62
    0
370
   -1
100
AcDbLine
 10
155.02
 20
12.3486
 11
153.494
 21
12.3486
  0
LINE
  5
4F
100
AcDbEntity
  8
0
  6
ByLayer
 62
    0
370
   -1
100
AcDbLine
 10
153.494
 20
12.3486
 11
153.494
 21
15.5787
  0
LINE
  5
50
100
AcDbEntity
  8
0
  6
ByLayer
 62
    0
370
   -1
100
AcDbLine
 10
153.494
 20
15.5787
 11
146.745
 21
15.5787
  0
LINE
  5
51
100
AcDbEntity
  8
0
  6
ByLayer
 62
    0
370
   -1
100
AcDbLine
 10
146.745
 20
15.5787
 11
146.745
 21
12.3486
  0
LINE
  5
52
100
AcDbEntity
  8
0
  6
ByLayer
 62
    0
370
   -1
100
AcDbLine
 10
146.745
 20
12.3486
 11
145.919
 21
12.3486
  0
LINE
  5
53
100
AcDbEntity
  8
0
  6
ByLayer
 62
    0
370
   -1
100
AcDbLine
 10
145.919
 20
12.3486
 11
145.919
 21
9.54842
  0
LINE
  5
54
100
AcDbEntity
  8
0
  6
ByLayer
 62
    0
370
   -1
100
AcDbLine
 10
145.919
 20
9.54842
 11
146.745
 21
9.54842
  0
LINE
  5
55
100
AcDbEntity
  8
0
  6
ByLayer
 62
    0
370
   -1
100
AcDbLine
 10
146.745
 20
9.54842
 11
146.745
 21
3.27835
  0
LINE
  5
56
100
AcDbEntity
  8
0
  6
ByLayer
 62
    0
370
   -1
100
AcDbLine
 10
146.745
 20
3.27835
 11
148.47
 21
3.27835
  0
LINE
  5
57
100
AcDbEntity
  8
0
  6
ByLayer
 62
    0
370
   -1
100
AcDbLine
 10
148.47
 20
3.27835
 11
148.47
 21
2.07808
  0
LINE
  5
58
100
AcDbEntity
  8
0
  6
ByLayer
 62
    0
370
   -1
100
AcDbLine
 10
148.47
 20
2.07808
 11
151.769
 21
2.07808
  0
LINE
  5
59
100
AcDbEntity
  8
0
  6
ByLayer
 62
    0
370
   -1
100
AcDbLine
 10
151.769
 20
2.07808
 11
151.769
 21
3.27835
  0
LINE
  5
5A
100
AcDbEntity
  8
0
  6
ByLayer
 62
    0
370
   -1
100
AcDbLine
 10
151.769
 20
3.27835
 11
153.494
 21
3.27835
  0
LINE
  5
5B
100
AcDbEntity
  8
0
  6
ByLayer
 62
    0
370
   -1
100
AcDbLine
 10
153.494
 20
3.27835
 11
153.494
 21
7.74869
  0
LINE
  5
5C
100
AcDbEntity
  8
0
  6
ByLayer
 62
    0
370
   -1
100
AcDbLine
 10
153.494
 20
7.74869
 11
155.02
 21
7.74869
  0
LINE
  5
5D
100
AcDbEntity
  8
0
  6
ByLayer
 62
    0
370
   -1
100
AcDbLine
 10
155.02
 20
7.74869
 11
155.02
 21
3.04822
  0
LINE
  5
5E
100
AcDbEntity
  8
0
  6
ByLayer
 62
    0
370
   -1
100
AcDbLine
 10
155.02
 20
3.04822
 11
169.019
 21
3.04822
  0
LINE
  5
5F
100
AcDbEntity
  8
0
  6
ByLayer
 62
    0
370
   -1
100
AcDbLine
 10
169.019
 20
3.04822
 11
169.019
 21
7.74869
  0
LINE
  5
60
100
AcDbEntity
  8
0
  6
ByLayer
 62
    0
370
   -1
100
AcDbLine
 10
169.019
 20
7.74869
 11
170.545
 21
7.74869
  0
LINE
  5
61
100
AcDbEntity
  8
0
  6
ByLayer
 62
    0
370
   -1
100
AcDbLine
 10
170.545
 20
7.74869
 11
170.545
 21
3.27835
  0
LINE
  5
62
100
AcDbEntity
  8
0
  6
ByLayer
 62
    0
370
   -1
100
AcDbLine
 10
170.545
 20
3.27835
 11
172.27
 21
3.27835
  0
LINE
  5
63
100
AcDbEntity
  8
0
  6
ByLayer
 62
    0
370
   -1
100
AcDbLine
 10
172.27
 20
3.27835
 11
172.27
 21
2.07808
  0
LINE
  5
64
100
AcDbEntity
  8
0
  6
ByLayer
 62
    0
370
   -1
100
AcDbLine
 10
172.27
 20
2.07808
 11
175.569
 21
2.07808
  0
LINE
  5
65
100
AcDbEntity
  8
0
  6
ByLayer
 62
    0
370
   -1
100
AcDbLine
 10
175.569
 20
2.07808
 11
175.569
 21
3.27835
  0
LINE
  5
66
100
AcDbEntity
  8
0
  6
ByLayer
 62
    0
370
   -1
100
AcDbLine
 10
175.569
 20
3.27835
 11
177.294
 21
3.27835
  0
LINE
  5
67
100
AcDbEntity
  8
0
  6
ByLayer
 62
    0
370
   -1
100
AcDbLine
 10
177.294
 20
3.27835
 11
177.294
 21
9.54842
  0
LINE
  5
68
100
AcDbEntity
  8
0
  6
ByLayer
 62
    0
370
   -1
100
AcDbLine
 10
177.294
 20
9.54842
 11
178.12
 21
9.54842
  0
LINE
  5
69
100
AcDbEntity
  8
0
  6
ByLayer
 62
    0
370
   -1
100
AcDbLine
 10
178.12
 20
9.54842
 11
178.12
 21
12.3486
  0
LINE
  5
6A
100
AcDbEntity
  8
0
  6
ByLayer
 62
    0
370
   -1
100
AcDbLine
 10
178.12
 20
12.3486
 11
177.294
 21
12.3486
  0
LINE
  5
6B
100
AcDbEntity
  8
0
  6
ByLayer
 62
    0
370
   -1
100
AcDbLine
 10
177.294
 20
12.3486
 11
177.294
 21
15.5787
  0
LINE
  5
6C
100
AcDbEntity
  8
0
  6
ByLayer
 62
    0
370
   -1
100
AcDbLine
 10
177.294
 20
15.5787
 11
170.545
 21
15.5787
  0
LINE
  5
6D
100
AcDbEntity
  8
0
  6
ByLayer
 62
    0
370
   -1
100
AcDbLine
 10
170.545
 20
15.5787
 11
170.545
 21
12.3486
  0
LINE
  5
6E
100
AcDbEntity
  8
0
  6
ByLayer
 62
    0
370
   -1
100
AcDbLine
 10
170.545
 20
12.3486
 11
169.019
 21
12.3486
  0
LINE
  5
6F
100
AcDbEntity
  8
0
  6
ByLayer
 62
    0
370
   -1
100
AcDbLine
 10
169.019
 20
12.3486
 11
169.019
 21
17.0491
  0
LINE
  5
70
100
AcDbEntity
  8
0
  6
ByLayer
 62
    0
370
   -1
100
AcDbLine
 10
169.019
 20
17.0491
 11
155.02
 21
17.0491
  0
LINE
  5
71
100
AcDbEntity
  8
0
  6
ByLayer
 62
    0
370
   -1
100
AcDbLine
 10
293.132
 20
16.9526
 11
307.132
 21
16.9526
  0
LINE
  5
72
100
AcDbEntity
  8
0
  6
ByLayer
 62
    0
370
   -1
100
AcDbLine
 10
307.132
 20
16.9526
 11
307.132
 21
2.95313
  0
LINE
  5
73
100
AcDbEntity
  8
0
  6
ByLayer
 62
    0
370
   -1
100
AcDbLine
 10
307.132
 20
2.95313
 11
293.132
 21
2.95313
  0
LINE
  5
74
100
AcDbEntity
  8
0
  6
ByLayer
 62
    0
370
   -1
100
AcDbLine
 10
293.132
 20
2.95313
 11
293.132
 21
16.9526
  0
LINE
  5
75
100
AcDbEntity
  8
0
  6
ByLayer
 62
    0
370
   -1
100
AcDbLine
 10
274.082
 20
16.9526
 11
288.082
 21
16.9526
  0
LINE
  5
76
100
AcDbEntity
  8
0
  6
ByLayer
 62
    0
370
   -1
100
AcDbLine
 10
288.082
 20
16.9526
 11
288.082
 21
2.95313
  0
LINE
  5
77
100
AcDbEntity
  8
0
  6
ByLayer
 62
    0
370
   -1
100
AcDbLine
 10
288.082
 20
2.95313
 11
274.082
 21
2.95313
  0
LINE
  5
78
100
AcDbEntity
  8
0
  6
ByLayer
 62
    0
370
   -1
100
AcDbLine
 10
274.082
 20
2.95313
 11
274.082
 21
16.9526
  0
LINE
  5
79
100
AcDbEntity
  8
0
  6
ByLayer
 62
    0
370
   -1
100
AcDbLine
 10
255.032
 20
16.9526
 11
269.032
 21
16.9526
  0
LINE
  5
7A
100
AcDbEntity
  8
0
  6
ByLayer
 62
    0
370
   -1
100
AcDbLine
 10
269.032
 20
16.9526
 11
269.032
 21
2.95313
  0
LINE
  5
7B
100
AcDbEntity
  8
0
  6
ByLayer
 62
    0
370
   -1
100
AcDbLine
 10
269.032
 20
2.95313
 11
255.032
 21
2.95313
  0
LINE
  5
7C
100
AcDbEntity
  8
0
  6
ByLayer
 62
    0
370
   -1
100
AcDbLine
 10
255.032
 20
2.95313
 11
255.032
 21
16.9526
  0
LINE
  5
7D
100
AcDbEntity
  8
0
  6
ByLayer
 62
    0
370
   -1
100
AcDbLine
 10
233.601
 20
16.9526
 11
247.6
 21
16.9526
  0
LINE
  5
7E
100
AcDbEntity
  8
0
  6
ByLayer
 62
    0
370
   -1
100
AcDbLine
 10
247.6
 20
16.9526
 11
247.6
 21
2.95313
  0
LINE
  5
7F
100
AcDbEntity
  8
0
  6
ByLayer
 62
    0
370
   -1
100
AcDbLine
 10
247.6
 20
2.95313
 11
233.601
 21
2.95313
  0
LINE
  5
80
100
AcDbEntity
  8
0
  6
ByLayer
 62
    0
370
   -1
100
AcDbLine
 10
233.601
 20
2.95313
 11
233.601
 21
16.9526
  0
LINE
  5
81
100
AcDbEntity
  8
0
  6
ByLayer
 62
    0
370
   -1
100
AcDbLine
 10
209.787
 20
16.9526
 11
223.788
 21
16.9526
  0
LINE
  5
82
100
AcDbEntity
  8
0
  6
ByLayer
 62
    0
370
   -1
100
AcDbLine
 10
223.788
 20
16.9526
 11
223.788
 21
2.95313
  0
LINE
  5
83
100
AcDbEntity
  8
0
  6
ByLayer
 62
    0
370
   -1
100
AcDbLine
 10
223.788
 20
2.95313
 11
209.787
 21
2.95313
  0
LINE
  5
84
100
AcDbEntity
  8
0
  6
ByLayer
 62
    0
370
   -1
100
AcDbLine
 10
209.787
 20
2.95313
 11
209.787
 21
16.9526
  0
LINE
  5
85
100
AcDbEntity
  8
0
  6
ByLayer
 62
    0
370
   -1
100
AcDbLine
 10
185.976
 20
17.0491
 11
199.975
 21
17.0491
  0
LINE
  5
86
100
AcDbEntity
  8
0
  6
ByLayer
 62
    0
370
   -1
100
AcDbLine
 10
199.975
 20
17.0491
 11
199.975
 21
3.04822
  0
LINE
  5
87
100
AcDbEntity
  8
0
  6
ByLayer
 62
    0
370
   -1
100
AcDbLine
 10
199.975
 20
3.04822
 11
185.976
 21
3.04822
  0
LINE
  5
88
100
AcDbEntity
  8
0
  6
ByLayer
 62
    0
370
   -1
100
AcDbLine
 10
185.976
 20
3.04822
 11
185.976
 21
17.0491
  0
LINE
  5
89
100
AcDbEntity
  8
0
  6
ByLayer
 62
    0
370
   -1
100
AcDbLine
 10
274.082
 20
36.0041
 11
288.082
 21
36.0041
  0
LINE
  5
8A
100
AcDbEntity
  8
0
  6
ByLayer
 62
    0
370
   -1
100
AcDbLine
 10
288.082
 20
36.0041
 11
288.082
 21
22.0031
  0
LINE
  5
8B
100
AcDbEntity
  8
0
  6
ByLayer
 62
    0
370
   -1
100
AcDbLine
 10
288.082
 20
22.0031
 11
274.082
 21
22.0031
  0
LINE
  5
8C
100
AcDbEntity
  8
0
  6
ByLayer
 62
    0
370
   -1
100
AcDbLine
 10
274.082
 20
22.0031
 11
274.082
 21
36.0041
  0
LINE
  5
8D
100
AcDbEntity
  8
0
  6
ByLayer
 62
    0
370
   -1
100
AcDbLine
 10
247.887
 20
36.099
 11
261.888
 21
36.099
  0
LINE
  5
8E
100
AcDbEntity
  8
0
  6
ByLayer
 62
    0
370
   -1
100
AcDbLine
 10
261.888
 20
36.099
 11
261.888
 21
22.0982
  0
LINE
  5
8F
100
AcDbEntity
  8
0
  6
ByLayer
 62
    0
370
   -1
100
AcDbLine
 10
261.888
 20
22.0982
 11
247.887
 21
22.0982
  0
LINE
  5
90
100
AcDbEntity
  8
0
  6
ByLayer
 62
    0
370
   -1
100
AcDbLine
 10
247.887
 20
22.0982
 11
247.887
 21
36.099
  0
LINE
  5
91
100
AcDbEntity
  8
0
  6
ByLayer
 62
    0
370
   -1
100
AcDbLine
 10
221.695
 20
36.099
 11
235.694
 21
36.099
  0
LINE
  5
92
100
AcDbEntity
  8
0
  6
ByLayer
 62
    0
370
   -1
100
AcDbLine
 10
235.694
 20
36.099
 11
235.694
 21
22.0982
  0
LINE
  5
93
100
AcDbEntity
  8
0
  6
ByLayer
 62
    0
370
   -1
100
AcDbLine
 10
235.694
 20
22.0982
 11
221.695
 21
22.0982
  0
LINE
  5
94
100
AcDbEntity
  8
0
  6
ByLayer
 62
    0
370
   -1
100
AcDbLine
 10
221.695
 20
22.0982
 11
221.695
 21
36.099
  0
LINE
  5
95
100
AcDbEntity
  8
0
  6
ByLayer
 62
    0
370
   -1
100
AcDbLine
 10
145.495
 20
38.4789
 11
159.494
 21
38.4789
  0
LINE
  5
96
100
AcDbEntity
  8
0
  6
ByLayer
 62
    0
370
   -1
100
AcDbLine
 10
159.494
 20
38.4789
 11
159.494
 21
24.4795
  0
LINE
  5
97
100
AcDbEntity
  8
0
  6
ByLayer
 62
    0
370
   -1
100
AcDbLine
 10
159.494
 20
24.4795
 11
145.495
 21
24.4795
  0
LINE
  5
98
100
AcDbEntity
  8
0
  6
ByLayer
 62
    0
370
   -1
100
AcDbLine
 10
145.495
 20
24.4795
 11
145.495
 21
38.4789
  0
LINE
  5
99
100
AcDbEntity
  8
0
  6
ByLayer
 62
    0
370
   -1
100
AcDbLine
 10
202.643
 20
40.8601
 11
216.644
 21
40.8601
  0
LINE
  5
9A
100
AcDbEntity
  8
0
  6
ByLayer
 62
    0
370
   -1
100
AcDbLine
 10
216.644
 20
40.8601
 11
216.644
 21
26.8607
  0
LINE
  5
9B
100
AcDbEntity
  8
0
  6
ByLayer
 62
    0
370
   -1
100
AcDbLine
 10
216.644
 20
26.8607
 11
202.643
 21
26.8607
  0
LINE
  5
9C
100
AcDbEntity
  8
0
  6
ByLayer
 62
    0
370
   -1
100
AcDbLine
 10
202.643
 20
26.8607
 11
202.643
 21
40.8601
  0
LINE
  5
9D
100
AcDbEntity
  8
0
  6
ByLayer
 62
    0
370
   -1
100
AcDbLine
 10
164.545
 20
40.8601
 11
178.544
 21
40.8601
  0
LINE
  5
9E
100
AcDbEntity
  8
0
  6
ByLayer
 62
    0
370
   -1
100
AcDbLine
 10
178.544
 20
40.8601
 11
178.544
 21
26.8607
  0
LINE
  5
9F
100
AcDbEntity
  8
0
  6
ByLayer
 62
    0
370
   -1
100
AcDbLine
 10
178.544
 20
26.8607
 11
164.545
 21
26.8607
  0
LINE
  5
A0
100
AcDbEntity
  8
0
  6
ByLayer
 62
    0
370
   -1
100
AcDbLine
 10
164.545
 20
26.8607
 11
164.545
 21
40.8601
  0
LINE
  5
A1
100
AcDbEntity
  8
0
  6
ByLayer
 62
    0
370
   -1
100
AcDbLine
 10
183.595
 20
43.2414
 11
197.594
 21
43.2414
  0
LINE
  5
A2
100
AcDbEntity
  8
0
  6
ByLayer
 62
    0
370
   -1
100
AcDbLine
 10
197.594
 20
43.2414
 11
197.594
 21
29.242
  0
LINE
  5
A3
100
AcDbEntity
  8
0
  6
ByLayer
 62
    0
370
   -1
100
AcDbLine
 10
197.594
 20
29.242
 11
183.595
 21
29.242
  0
LINE
  5
A4
100
AcDbEntity
  8
0
  6
ByLayer
 62
    0
370
   -1
100
AcDbLine
 10
183.595
 20
29.242
 11
183.595
 21
43.2414
  0
LINE
  5
A5
100
AcDbEntity
  8
0
  6
ByLayer
 62
    0
370
   -1
100
AcDbLine
 10
271.701
 20
55.149
 11
271.701
 21
50.4486
  0
LINE
  5
A6
100
AcDbEntity
  8
0
  6
ByLayer
 62
    0
370
   -1
100
AcDbLine
 10
271.701
 20
50.4486
 11
270.176
 21
50.4486
  0
LINE
  5
A7
100
AcDbEntity
  8
0
  6
ByLayer
 62
    0
370
   -1
100
AcDbLine
 10
270.176
 20
50.4486
 11
270.176
 21
53.6787
  0
LINE
  5
A8
100
AcDbEntity
  8
0
  6
ByLayer
 62
    0
370
   -1
100
AcDbLine
 10
270.176
 20
53.6787
 11
263.426
 21
53.6787
  0
LINE
  5
A9
100
AcDbEntity
  8
0
  6
ByLayer
 62
    0
370
   -1
100
AcDbLine
 10
263.426
 20
53.6787
 11
263.426
 21
50.4486
  0
LINE
  5
AA
100
AcDbEntity
  8
0
  6
ByLayer
 62
    0
370
   -1
100
AcDbLine
 10
263.426
 20
50.4486
 11
262.6
 21
50.4486
  0
LINE
  5
AB
100
AcDbEntity
  8
0
  6
ByLayer
 62
    0
370
   -1
100
AcDbLine
 10
262.6
 20
50.4486
 11
262.6
 21
47.6483
  0
LINE
  5
AC
100
AcDbEntity
  8
0
  6
ByLayer
 62
    0
370
   -1
100
AcDbLine
 10
262.6
 20
47.6483
 11
263.426
 21
47.6483
  0
LINE
  5
AD
100
AcDbEntity
  8
0
  6
ByLayer
 62
    0
370
   -1
100
AcDbLine
 10
263.426
 20
47.6483
 11
263.426
 21
41.3784
  0
LINE
  5
AE
100
AcDbEntity
  8
0
  6
ByLayer
 62
    0
370
   -1
100
AcDbLine
 10
263.426
 20
41.3784
 11
265.151
 21
41.3784
  0
LINE
  5
AF
100
AcDbEntity
  8
0
  6
ByLayer
 62
    0
370
   -1
100
AcDbLine
 10
265.151
 20
41.3784
 11
265.151
 21
40.1782
  0
LINE
  5
B0
100
AcDbEntity
  8
0
  6
ByLayer
 62
    0
370
   -1
100
AcDbLine
 10
265.151
 20
40.1782
 11
268.45
 21
40.1782
  0
LINE
  5
B1
100
AcDbEntity
  8
0
  6
ByLayer
 62
    0
370
   -1
100
AcDbLine
 10
268.45
 20
40.1782
 11
268.45
 21
41.3784
  0
LINE
  5
B2
100
AcDbEntity
  8
0
  6
ByLayer
 62
    0
370
   -1
100
AcDbLine
 10
268.45
 20
41.3784
 11
270.176
 21
41.3784
  0
LINE
  5
B3
100
AcDbEntity
  8
0
  6
ByLayer
 62
    0
370
   -1
100
AcDbLine
 10
270.176
 20
41.3784
 11
270.176
 21
45.8488
  0
LINE
  5
B4
100
AcDbEntity
  8
0
  6
ByLayer
 62
    0
370
   -1
100
AcDbLine
 10
270.176
 20
45.8488
 11
271.701
 21
45.8488
  0
LINE
  5
B5
100
AcDbEntity
  8
0
  6
ByLayer
 62
    0
370
   -1
100
AcDbLine
 10
271.701
 20
45.8488
 11
271.701
 21
41.1484
  0
LINE
  5
B6
100
AcDbEntity
  8
0
  6
ByLayer
 62
    0
370
   -1
100
AcDbLine
 10
271.701
 20
41.1484
 11
285.7
 21
41.1484
  0
LINE
  5
B7
100
AcDbEntity
  8
0
  6
ByLayer
 62
    0
370
   -1
100
AcDbLine
 10
285.7
 20
41.1484
 11
285.7
 21
45.8488
  0
LINE
  5
B8
100
AcDbEntity
  8
0
  6
ByLayer
 62
    0
370
   -1
100
AcDbLine
 10
285.7
 20
45.8488
 11
287.226
 21
45.8488
  0
LINE
  5
B9
100
AcDbEntity
  8
0
  6
ByLayer
 62
    0
370
   -1
100
AcDbLine
 10
287.226
 20
45.8488
 11
287.226
 21
41.3784
  0
LINE
  5
BA
100
AcDbEntity
  8
0
  6
ByLayer
 62
    0
370
   -1
100
AcDbLine
 10
287.226
 20
41.3784
 11
288.95
 21
41.3784
  0
LINE
  5
BB
100
AcDbEntity
  8
0
  6
ByLayer
 62
    0
370
   -1
100
AcDbLine
 10
288.95
 20
41.3784
 11
288.95
 21
40.1782
  0
LINE
  5
BC
100
AcDbEntity
  8
0
  6
ByLayer
 62
    0
370
   -1
100
AcDbLine
 10
288.95
 20
40.1782
 11
292.25
 21
40.1782
  0
LINE
  5
BD
100
AcDbEntity
  8
0
  6
ByLayer
 62
    0
370
   -1
100
AcDbLine
 10
292.25
 20
40.1782
 11
292.25
 21
41.3784
  0
LINE
  5
BE
100
AcDbEntity
  8
0
  6
ByLayer
 62
    0
370
   -1
100
AcDbLine
 10
292.25
 20
41.3784
 11
293.975
 21
41.3784
  0
LINE
  5
BF
100
AcDbEntity
  8
0
  6
ByLayer
 62
    0
370
   -1
100
AcDbLine
 10
293.975
 20
41.3784
 11
293.975
 21
47.6483
  0
LINE
  5
C0
100
AcDbEntity
  8
0
  6
ByLayer
 62
    0
370
   -1
100
AcDbLine
 10
293.975
 20
47.6483
 11
294.801
 21
47.6483
  0
LINE
  5
C1
100
AcDbEntity
  8
0
  6
ByLayer
 62
    0
370
   -1
100
AcDbLine
 10
294.801
 20
47.6483
 11
294.801
 21
50.4486
  0
LINE
  5
C2
100
AcDbEntity
  8
0
  6
ByLayer
 62
    0
370
   -1
100
AcDbLine
 10
294.801
 20
50.4486
 11
293.975
 21
50.4486
  0
LINE
  5
C3
100
AcDbEntity
  8
0
  6
ByLayer
 62
    0
370
   -1
100
AcDbLine
 10
293.975
 20
50.4486
 11
293.975
 21
53.6787
  0
LINE
  5
C4
100
AcDbEntity
  8
0
  6
ByLayer
 62
    0
370
   -1
100
AcDbLine
 10
293.975
 20
53.6787
 11
287.226
 21
53.6787
  0
LINE
  5
C5
100
AcDbEntity
  8
0
  6
ByLayer
 62
    0
370
   -1
100
AcDbLine
 10
287.226
 20
53.6787
 11
287.226
 21
50.4486
  0
LINE
  5
C6
100
AcDbEntity
  8
0
  6
ByLayer
 62
    0
370
   -1
100
AcDbLine
 10
287.226
 20
50.4486
 11
285.7
 21
50.4486
  0
LINE
  5
C7
100
AcDbEntity
  8
0
  6
ByLayer
 62
    0
370
   -1
100
AcDbLine
 10
285.7
 20
50.4486
 11
285.7
 21
55.149
  0
LINE
  5
C8
100
AcDbEntity
  8
0
  6
ByLayer
 62
    0
370
   -1
100
AcDbLine
 10
285.7
 20
55.149
 11
271.701
 21
55.149
  0
LINE
  5
C9
100
AcDbEntity
  8
0
  6
ByLayer
 62
    0
370
   -1
100
AcDbLine
 10
240.745
 20
55.149
 11
254.744
 21
55.149
  0
LINE
  5
CA
100
AcDbEntity
  8
0
  6
ByLayer
 62
    0
370
   -1
100
AcDbLine
 10
254.744
 20
55.149
 11
254.744
 21
41.1484
  0
LINE
  5
CB
100
AcDbEntity
  8
0
  6
ByLayer
 62
    0
370
   -1
100
AcDbLine
 10
254.744
 20
41.1484
 11
240.745
 21
41.1484
  0
LINE
  5
CC
100
AcDbEntity
  8
0
  6
ByLayer
 62
    0
370
   -1
100
AcDbLine
 10
240.745
 20
41.1484
 11
240.745
 21
55.149
  0
LINE
  5
CD
100
AcDbEntity
  8
0
  6
ByLayer
 62
    0
370
   -1
100
AcDbLine
 10
221.695
 20
55.149
 11
235.694
 21
55.149
  0
LINE
  5
CE
100
AcDbEntity
  8
0
  6
ByLayer
 62
    0
370
   -1
100
AcDbLine
 10
235.694
 20
55.149
 11
235.694
 21
41.1484
  0
LINE
  5
CF
100
AcDbEntity
  8
0
  6
ByLayer
 62
    0
370
   -1
100
AcDbLine
 10
235.694
 20
41.1484
 11
221.695
 21
41.1484
  0
LINE
  5
D0
100
AcDbEntity
  8
0
  6
ByLayer
 62
    0
370
   -1
100
AcDbLine
 10
221.695
 20
41.1484
 11
221.695
 21
55.149
  0
LINE
  5
D1
100
AcDbEntity
  8
0
  6
ByLayer
 62
    0
370
   -1
100
AcDbLine
 10
145.495
 20
57.5289
 11
159.494
 21
57.5289
  0
LINE
  5
D2
100
AcDbEntity
  8
0
  6
ByLayer
 62
    0
370
   -1
100
AcDbLine
 10
159.494
 20
57.5289
 11
159.494
 21
43.5296
  0
LINE
  5
D3
100
AcDbEntity
  8
0
  6
ByLayer
 62
    0
370
   -1
100
AcDbLine
 10
159.494
 20
43.5296
 11
145.495
 21
43.5296
  0
LINE
  5
D4
100
AcDbEntity
  8
0
  6
ByLayer
 62
    0
370
   -1
100
AcDbLine
 10
145.495
 20
43.5296
 11
145.495
 21
57.5289
  0
LINE
  5
D5
100
AcDbEntity
  8
0
  6
ByLayer
 62
    0
370
   -1
100
AcDbLine
 10
202.643
 20
59.9101
 11
216.644
 21
59.9101
  0
LINE
  5
D6
100
AcDbEntity
  8
0
  6
ByLayer
 62
    0
370
   -1
100
AcDbLine
 10
216.644
 20
59.9101
 11
216.644
 21
45.9109
  0
LINE
  5
D7
100
AcDbEntity
  8
0
  6
ByLayer
 62
    0
370
   -1
100
AcDbLine
 10
216.644
 20
45.9109
 11
202.643
 21
45.9109
  0
LINE
  5
D8
100
AcDbEntity
  8
0
  6
ByLayer
 62
    0
370
   -1
100
AcDbLine
 10
202.643
 20
45.9109
 11
202.643
 21
59.9101
  0
LINE
  5
D9
100
AcDbEntity
  8
0
  6
ByLayer
 62
    0
370
   -1
100
AcDbLine
 10
164.545
 20
59.9101
 11
178.544
 21
59.9101
  0
LINE
  5
DA
100
AcDbEntity
  8
0
  6
ByLayer
 62
    0
370
   -1
100
AcDbLine
 10
178.544
 20
59.9101
 11
178.544
 21
45.9109
  0
LINE
  5
DB
100
AcDbEntity
  8
0
  6
ByLayer
 62
    0
370
   -1
100
AcDbLine
 10
178.544
 20
45.9109
 11
164.545
 21
45.9109
  0
LINE
  5
DC
100
AcDbEntity
  8
0
  6
ByLayer
 62
    0
370
   -1
100
AcDbLine
 10
164.545
 20
45.9109
 11
164.545
 21
59.9101
  0
LINE
  5
DD
100
AcDbEntity
  8
0
  6
ByLayer
 62
    0
370
   -1
100
AcDbLine
 10
183.595
 20
62.2914
 11
197.594
 21
62.2914
  0
LINE
  5
DE
100
AcDbEntity
  8
0
  6
ByLayer
 62
    0
370
   -1
100
AcDbLine
 10
197.594
 20
62.2914
 11
197.594
 21
48.2921
  0
LINE
  5
DF
100
AcDbEntity
  8
0
  6
ByLayer
 62
    0
370
   -1
100
AcDbLine
 10
197.594
 20
48.2921
 11
183.595
 21
48.2921
  0
LINE
  5
E0
100
AcDbEntity
  8
0
  6
ByLayer
 62
    0
370
   -1
100
AcDbLine
 10
183.595
 20
48.2921
 11
183.595
 21
62.2914
  0
LINE
  5
E1
100
AcDbEntity
  8
0
  6
ByLayer
 62
    0
370
   -1
100
AcDbLine
 10
283.607
 20
74.199
 11
297.607
 21
74.199
  0
LINE
  5
E2
100
AcDbEntity
  8
0
  6
ByLayer
 62
    0
370
   -1
100
AcDbLine
 10
297.607
 20
74.199
 11
297.607
 21
60.1984
  0
LINE
  5
E3
100
AcDbEntity
  8
0
  6
ByLayer
 62
    0
370
   -1
100
AcDbLine
 10
297.607
 20
60.1984
 11
283.607
 21
60.1984
  0
LINE
  5
E4
100
AcDbEntity
  8
0
  6
ByLayer
 62
    0
370
   -1
100
AcDbLine
 10
283.607
 20
60.1984
 11
283.607
 21
74.199
  0
LINE
  5
E5
100
AcDbEntity
  8
0
  6
ByLayer
 62
    0
370
   -1
100
AcDbLine
 10
259.795
 20
74.199
 11
273.794
 21
74.199
  0
LINE
  5
E6
100
AcDbEntity
  8
0
  6
ByLayer
 62
    0
370
   -1
100
AcDbLine
 10
273.794
 20
74.199
 11
273.794
 21
60.1984
  0
LINE
  5
E7
100
AcDbEntity
  8
0
  6
ByLayer
 62
    0
370
   -1
100
AcDbLine
 10
273.794
 20
60.1984
 11
259.795
 21
60.1984
  0
LINE
  5
E8
100
AcDbEntity
  8
0
  6
ByLayer
 62
    0
370
   -1
100
AcDbLine
 10
259.795
 20
60.1984
 11
259.795
 21
74.199
  0
LINE
  5
E9
100
AcDbEntity
  8
0
  6
ByLayer
 62
    0
370
   -1
100
AcDbLine
 10
240.745
 20
74.199
 11
254.744
 21
74.199
  0
LINE
  5
EA
100
AcDbEntity
  8
0
  6
ByLayer
 62
    0
370
   -1
100
AcDbLine
 10
254.744
 20
74.199
 11
254.744
 21
60.1984
  0
LINE
  5
EB
100
AcDbEntity
  8
0
  6
ByLayer
 62
    0
370
   -1
100
AcDbLine
 10
254.744
 20
60.1984
 11
240.745
 21
60.1984
  0
LINE
  5
EC
100
AcDbEntity
  8
0
  6
ByLayer
 62
    0
370
   -1
100
AcDbLine
 10
240.745
 20
60.1984
 11
240.745
 21
74.199
  0
LINE
  5
ED
100
AcDbEntity
  8
0
  6
ByLayer
 62
    0
370
   -1
100
AcDbLine
 10
221.695
 20
74.199
 11
235.694
 21
74.199
  0
LINE
  5
EE
100
AcDbEntity
  8
0
  6
ByLayer
 62
    0
370
   -1
100
AcDbLine
 10
235.694
 20
74.199
 11
235.694
 21
60.1984
  0
LINE
  5
EF
100
AcDbEntity
  8
0
  6
ByLayer
 62
    0
370
   -1
100
AcDbLine
 10
235.694
 20
60.1984
 11
221.695
 21
60.1984
  0
LINE
  5
F0
100
AcDbEntity
  8
0
  6
ByLayer
 62
    0
370
   -1
100
AcDbLine
 10
221.695
 20
60.1984
 11
221.695
 21
74.199
  0
LINE
  5
F1
100
AcDbEntity
  8
0
  6
ByLayer
 62
    0
370
   -1
100
AcDbLine
 10
145.495
 20
76.5789
 11
159.494
 21
76.5789
  0
LINE
  5
F2
100
AcDbEntity
  8
0
  6
ByLayer
 62
    0
370
   -1
100
AcDbLine
 10
159.494
 20
76.5789
 11
159.494
 21
62.5796
  0
LINE
  5
F3
100
AcDbEntity
  8
0
  6
ByLayer
 62
    0
370
   -1
100
AcDbLine
 10
159.494
 20
62.5796
 11
145.495
 21
62.5796
  0
LINE
  5
F4
100
AcDbEntity
  8
0
  6
ByLayer
 62
    0
370
   -1
100
AcDbLine
 10
145.495
 20
62.5796
 11
145.495
 21
76.5789
  0
LINE
  5
F5
100
AcDbEntity
  8
0
  6
ByLayer
 62
    0
370
   -1
100
AcDbLine
 10
202.643
 20
78.9601
 11
216.644
 21
78.9601
  0
LINE
  5
F6
100
AcDbEntity
  8
0
  6
ByLayer
 62
    0
370
   -1
100
AcDbLine
 10
216.644
 20
78.9601
 11
216.644
 21
64.9609
  0
LINE
  5
F7
100
AcDbEntity
  8
0
  6
ByLayer
 62
    0
370
   -1
100
AcDbLine
 10
216.644
 20
64.9609
 11
202.643
 21
64.9609
  0
LINE
  5
F8
100
AcDbEntity
  8
0
  6
ByLayer
 62
    0
370
   -1
100
AcDbLine
 10
202.643
 20
64.9609
 11
202.643
 21
78.9601
  0
LINE
  5
F9
100
AcDbEntity
  8
0
  6
ByLayer
 62
    0
370
   -1
100
AcDbLine
 10
164.545
 20
78.9601
 11
178.544
 21
78.9601
  0
LINE
  5
FA
100
AcDbEntity
  8
0
  6
ByLayer
 62
    0
370
   -1
100
AcDbLine
 10
178.544
 20
78.9601
 11
178.544
 21
64.9609
  0
LINE
  5
FB
100
AcDbEntity
  8
0
  6
ByLayer
 62
    0
370
   -1
100
AcDbLine
 10
178.544
 20
64.9609
 11
164.545
 21
64.9609
  0
LINE
  5
FC
100
AcDbEntity
  8
0
  6
ByLayer
 62
    0
370
   -1
100
AcDbLine
 10
164.545
 20
64.9609
 11
164.545
 21
78.9601
  0
LINE
  5
FD
100
AcDbEntity
  8
0
  6
ByLayer
 62
    0
370
   -1
100
AcDbLine
 10
183.595
 20
81.34139999999999
 11
197.594
 21
81.34139999999999
  0
LINE
  5
FE
100
AcDbEntity
  8
0
  6
ByLayer
 62
    0
370
   -1
100
AcDbLine
 10
197.594
 20
81.34139999999999
 11
197.594
 21
67.3421
  0
LINE
  5
FF
100
AcDbEntity
  8
0
  6
ByLayer
 62
    0
370
   -1
100
AcDbLine
 10
197.594
 20
67.3421
 11
183.595
 21
67.3421
  0
LINE
  5
100
100
AcDbEntity
  8
0
  6
ByLayer
 62
    0
370
   -1
100
AcDbLine
 10
183.595
 20
67.3421
 11
183.595
 21
81.34139999999999
  0
LINE
  5
101
100
AcDbEntity
  8
0
  6
ByLayer
 62
    0
370
   -1
100
AcDbLine
 10
288.37
 20
93.249
 11
288.37
 21
88.54859999999999
  0
LINE
  5
102
100
AcDbEntity
  8
0
  6
ByLayer
 62
    0
370
   -1
100
AcDbLine
 10
288.37
 20
88.54859999999999
 11
286.844
 21
88.54859999999999
  0
LINE
  5
103
100
AcDbEntity
  8
0
  6
ByLayer
 62
    0
370
   -1
100
AcDbLine
 10
286.844
 20
88.54859999999999
 11
286.844
 21
91.7787
  0
LINE
  5
104
100
AcDbEntity
  8
0
  6
ByLayer
 62
    0
370
   -1
100
AcDbLine
 10
286.844
 20
91.7787
 11
280.095
 21
91.7787
  0
LINE
  5
105
100
AcDbEntity
  8
0
  6
ByLayer
 62
    0
370
   -1
100
AcDbLine
 10
280.095
 20
91.7787
 11
280.095
 21
88.54859999999999
  0
LINE
  5
106
100
AcDbEntity
  8
0
  6
ByLayer
 62
    0
370
   -1
100
AcDbLine
 10
280.095
 20
88.54859999999999
 11
279.269
 21
88.54859999999999
  0
LINE
  5
107
100
AcDbEntity
  8
0
  6
ByLayer
 62
    0
370
   -1
100
AcDbLine
 10
279.269
 20
88.54859999999999
 11
279.269
 21
85.7483
  0
LINE
  5
108
100
AcDbEntity
  8
0
  6
ByLayer
 62
    0
370
   -1
100
AcDbLine
 10
279.269
 20
85.7483
 11
280.095
 21
85.7483
  0
LINE
  5
109
100
AcDbEntity
  8
0
  6
ByLayer
 62
    0
370
   -1
100
AcDbLine
 10
280.095
 20
85.7483
 11
280.095
 21
79.47839999999999
  0
LINE
  5
10A
100
AcDbEntity
  8
0
  6
ByLayer
 62
    0
370
   -1
100
AcDbLine
 10
280.095
 20
79.47839999999999
 11
281.82
 21
79.47839999999999
  0
LINE
  5
10B
100
AcDbEntity
  8
0
  6
ByLayer
 62
    0
370
   -1
100
AcDbLine
 10
281.82
 20
79.47839999999999
 11
281.82
 21
78.2782
  0
LINE
  5
10C
100
AcDbEntity
  8
0
  6
ByLayer
 62
    0
370
   -1
100
AcDbLine
 10
281.82
 20
78.2782
 11
285.119
 21
78.2782
  0
LINE
  5
10D
100
AcDbEntity
  8
0
  6
ByLayer
 62
    0
370
   -1
100
AcDbLine
 10
285.119
 20
78.2782
 11
285.119
 21
79.47839999999999
  0
LINE
  5
10E
100
AcDbEntity
  8
0
  6
ByLayer
 62
    0
370
   -1
100
AcDbLine
 10
285.119
 20
79.47839999999999
 11
286.844
 21
79.47839999999999
  0
LINE
  5
10F
100
AcDbEntity
  8
0
  6
ByLayer
 62
    0
370
   -1
100
AcDbLine
 10
286.844
 20
79.47839999999999
 11
286.844
 21
83.94880000000001
  0
LINE
  5
110
100
AcDbEntity
  8
0
  6
ByLayer
 62
    0
370
   -1
100
AcDbLine
 10
286.844
 20
83.94880000000001
 11
288.37
 21
83.94880000000001
  0
LINE
  5
111
100
AcDbEntity
  8
0
  6
ByLayer
 62
    0
370
   -1
100
AcDbLine
 10
288.37
 20
83.94880000000001
 11
288.37
 21
79.2484
  0
LINE
  5
112
100
AcDbEntity
  8
0
  6
ByLayer
 62
    0
370
   -1
100
AcDbLine
 10
288.37
 20
79.2484
 11
302.369
 21
79.2484
  0
LINE
  5
113
100
AcDbEntity
  8
0
  6
ByLayer
 62
    0
370
   -1
100
AcDbLine
 10
302.369
 20
79.2484
 11
302.369
 21
83.94880000000001
  0
LINE
  5
114
100
AcDbEntity
  8
0
  6
ByLayer
 62
    0
370
   -1
100
AcDbLine
 10
302.369
 20
83.94880000000001
 11
303.895
 21
83.94880000000001
  0
LINE
  5
115
100
AcDbEntity
  8
0
  6
ByLayer
 62
    0
370
   -1
100
AcDbLine
 10
303.895
 20
83.94880000000001
 11
303.895
 21
79.47839999999999
  0
LINE
  5
116
100
AcDbEntity
  8
0
  6
ByLayer
 62
    0
370
   -1
100
AcDbLine
 10
303.895
 20
79.47839999999999
 11
305.62
 21
79.47839999999999
  0
LINE
  5
117
100
AcDbEntity
  8
0
  6
ByLayer
 62
    0
370
   -1
100
AcDbLine
 10
305.62
 20
79.47839999999999
 11
305.62
 21
78.2782
  0
LINE
  5
118
100
AcDbEntity
  8
0
  6
ByLayer
 62
    0
370
   -1
100
AcDbLine
 10
305.62
 20
78.2782
 11
308.919
 21
78.2782
  0
LINE
  5
119
100
AcDbEntity
  8
0
  6
ByLayer
 62
    0
370
   -1
100
AcDbLine
 10
308.919
 20
78.2782
 11
308.919
 21
79.47839999999999
  0
LINE
  5
11A
100
AcDbEntity
  8
0
  6
ByLayer
 62
    0
370
   -1
100
AcDbLine
 10
308.919
 20
79.47839999999999
 11
310.644
 21
79.47839999999999
  0
LINE
  5
11B
100
AcDbEntity
  8
0
  6
ByLayer
 62
    0
370
   -1
100
AcDbLine
 10
310.644
 20
79.47839999999999
 11
310.644
 21
85.7483
  0
LINE
  5
11C
100
AcDbEntity
  8
0
  6
ByLayer
 62
    0
370
   -1
100
AcDbLine
 10
310.644
 20
85.7483
 11
311.47
 21
85.7483
  0
LINE
  5
11D
100
AcDbEntity
  8
0
  6
ByLayer
 62
    0
370
   -1
100
AcDbLine
 10
311.47
 20
85.7483
 11
311.47
 21
88.54859999999999
  0
LINE
  5
11E
100
AcDbEntity
  8
0
  6
ByLayer
 62
    0
370
   -1
100
AcDbLine
 10
311.47
 20
88.54859999999999
 11
310.644
 21
88.54859999999999
  0
LINE
  5
11F
100
AcDbEntity
  8
0
  6
ByLayer
 62
    0
370
   -1
100
AcDbLine
 10
310.644
 20
88.54859999999999
 11
310.644
 21
91.7787
  0
LINE
  5
120
100
AcDbEntity
  8
0
  6
ByLayer
 62
    0
370
   -1
100
AcDbLine
 10
310.644
 20
91.7787
 11
303.895
 21
91.7787
  0
LINE
  5
121
100
AcDbEntity
  8
0
  6
ByLayer
 62
    0
370
   -1
100
AcDbLine
 10
303.895
 20
91.7787
 11
303.895
 21
88.54859999999999
  0
LINE
  5
122
100
AcDbEntity
  8
0
  6
ByLayer
 62
    0
370
   -1
100
AcDbLine
 10
303.895
 20
88.54859999999999
 11
302.369
 21
88.54859999999999
  0
LINE
  5
123
100
AcDbEntity
  8
0
  6
ByLayer
 62
    0
370
   -1
100
AcDbLine
 10
302.369
 20
88.54859999999999
 11
302.369
 21
93.249
  0
LINE
  5
124
100
AcDbEntity
  8
0
  6
ByLayer
 62
    0
370
   -1
100
AcDbLine
 10
302.369
 20
93.249
 11
288.37
 21
93.249
  0
LINE
  5
125
100
AcDbEntity
  8
0
  6
ByLayer
 62
    0
370
   -1
100
AcDbLine
 10
259.795
 20
93.249
 11
273.794
 21
93.249
  0
LINE
  5
126
100
AcDbEntity
  8
0
  6
ByLayer
 62
    0
370
   -1
100
AcDbLine
 10
273.794
 20
93.249
 11
273.794
 21
79.2484
  0
LINE
  5
127
100
AcDbEntity
  8
0
  6
ByLayer
 62
    0
370
   -1
100
AcDbLine
 10
273.794
 20
79.2484
 11
259.795
 21
79.2484
  0
LINE
  5
128
100
AcDbEntity
  8
0
  6
ByLayer
 62
    0
370
   -1
100
AcDbLine
 10
259.795
 20
79.2484
 11
259.795
 21
93.249
  0
LINE
  5
129
100
AcDbEntity
  8
0
  6
ByLayer
 62
    0
370
   -1
100
AcDbLine
 10
240.745
 20
93.249
 11
254.744
 21
93.249
  0
LINE
  5
12A
100
AcDbEntity
  8
0
  6
ByLayer
 62
    0
370
   -1
100
AcDbLine
 10
254.744
 20
93.249
 11
254.744
 21
79.2484
  0
LINE
  5
12B
100
AcDbEntity
  8
0
  6
ByLayer
 62
    0
370
   -1
100
AcDbLine
 10
254.744
 20
79.2484
 11
240.745
 21
79.2484
  0
LINE
  5
12C
100
AcDbEntity
  8
0
  6
ByLayer
 62
    0
370
   -1
100
AcDbLine
 10
240.745
 20
79.2484
 11
240.745
 21
93.249
  0
LINE
  5
12D
100
AcDbEntity
  8
0
  6
ByLayer
 62
    0
370
   -1
100
AcDbLine
 10
221.695
 20
93.249
 11
235.694
 21
93.249
  0
LINE
  5
12E
100
AcDbEntity
  8
0
  6
ByLayer
 62
    0
370
   -1
100
AcDbLine
 10
235.694
 20
93.249
 11
235.694
 21
79.2484
  0
LINE
  5
12F
100
AcDbEntity
  8
0
  6
ByLayer
 62
    0
370
   -1
100
AcDbLine
 10
235.694
 20
79.2484
 11
221.695
 21
79.2484
  0
LINE
  5
130
100
AcDbEntity
  8
0
  6
ByLayer
 62
    0
370
   -1
100
AcDbLine
 10
221.695
 20
79.2484
 11
221.695
 21
93.249
  0
LINE
  5
131
100
AcDbEntity
  8
0
  6
ByLayer
 62
    0
370
   -1
100
AcDbLine
 10
145.495
 20
95.6289
 11
159.494
 21
95.6289
  0
LINE
  5
132
100
AcDbEntity
  8
0
  6
ByLayer
 62
    0
370
   -1
100
AcDbLine
 10
159.494
 20
95.6289
 11
159.494
 21
81.6296
  0
LINE
  5
133
100
AcDbEntity
  8
0
  6
ByLayer
 62
    0
370
   -1
100
AcDbLine
 10
159.494
 20
81.6296
 11
145.495
 21
81.6296
  0
LINE
  5
134
100
AcDbEntity
  8
0
  6
ByLayer
 62
    0
370
   -1
100
AcDbLine
 10
145.495
 20
81.6296
 11
145.495
 21
95.6289
  0
LINE
  5
135
100
AcDbEntity
  8
0
  6
ByLayer
 62
    0
370
   -1
100
AcDbLine
 10
202.643
 20
98.01009999999999
 11
216.644
 21
98.01009999999999
  0
LINE
  5
136
100
AcDbEntity
  8
0
  6
ByLayer
 62
    0
370
   -1
100
AcDbLine
 10
216.644
 20
98.01009999999999
 11
216.644
 21
84.01090000000001
  0
LINE
  5
137
100
AcDbEntity
  8
0
  6
ByLayer
 62
    0
370
   -1
100
AcDbLine
 10
216.644
 20
84.01090000000001
 11
202.643
 21
84.01090000000001
  0
LINE
  5
138
100
AcDbEntity
  8
0
  6
ByLayer
 62
    0
370
   -1
100
AcDbLine
 10
202.643
 20
84.01090000000001
 11
202.643
 21
98.01009999999999
  0
LINE
  5
139
100
AcDbEntity
  8
0
  6
ByLayer
 62
    0
370
   -1
100
AcDbLine
 10
164.545
 20
98.01009999999999
 11
178.544
 21
98.01009999999999
  0
LINE
  5
13A
100
AcDbEntity
  8
0
  6
ByLayer
 62
    0
370
   -1
100
AcDbLine
 10
178.544
 20
98.01009999999999
 11
178.544
 21
84.01090000000001
  0
LINE
  5
13B
100
AcDbEntity
  8
0
  6
ByLayer
 62
    0
370
   -1
100
AcDbLine
 10
178.544
 20
84.01090000000001
 11
164.545
 21
84.01090000000001
  0
LINE
  5
13C
100
AcDbEntity
  8
0
  6
ByLayer
 62
    0
370
   -1
100
AcDbLine
 10
164.545
 20
84.01090000000001
 11
164.545
 21
98.01009999999999
  0
LINE
  5
13D
100
AcDbEntity
  8
0
  6
ByLayer
 62
    0
370
   -1
100
AcDbLine
 10
183.595
 20
100.391
 11
197.594
 21
100.391
  0
LINE
  5
13E
100
AcDbEntity
  8
0
  6
ByLayer
 62
    0
370
   -1
100
AcDbLine
 10
197.594
 20
100.391
 11
197.594
 21
86.3921
  0
LINE
  5
13F
100
AcDbEntity
  8
0
  6
ByLayer
 62
    0
370
   -1
100
AcDbLine
 10
197.594
 20
86.3921
 11
183.595
 21
86.3921
  0
LINE
  5
140
100
AcDbEntity
  8
0
  6
ByLayer
 62
    0
370
   -1
100
AcDbLine
 10
183.595
 20
86.3921
 11
183.595
 21
100.391
  0
LINE
  5
141
100
AcDbEntity
  8
0
  6
ByLayer
 62
  256
370
   -1
100
AcDbLine
 10
159.494
 20
81.6296
 11
145.495
 21
81.6296
  0
LINE
  5
142
100
AcDbEntity
  8
0
  6
ByLayer
 62
  256
370
   -1
100
AcDbLine
 10
169.019
 20
3.04822
 11
155.02
 21
3.04822
  0
LINE
  5
143
100
AcDbEntity
  8
0
  6
ByLayer
 62
  256
370
   -1
100
AcDbLine
 10
178.544
 20
84.01090000000001
 11
164.545
 21
84.01090000000001
  0
LINE
  5
144
100
AcDbEntity
  8
0
  6
ByBlock
 62
  256
370
   -1
100
AcDbLine
 10
142.8945
 20
0.4486600000000003
 11
142.8945
 21
98.22924999999998
  0
LINE
  5
145
100
AcDbEntity
  8
0
  6
ByBlock
 62
  256
370
   -1
100
AcDbLine
 10
142.8945
 20
98.22924999999998
 11
161.9445
 21
98.22924999999998
  0
LINE
  5
146
100
AcDbEntity
  8
0
  6
ByBlock
 62
  256
370
   -1
100
AcDbLine
 10
161.9445
 20
98.22924999999998
 11
161.9445
 21
100.6105
  0
LINE
  5
147
100
AcDbEntity
  8
0
  6
ByBlock
 62
  256
370
   -1
100
AcDbLine
 10
161.9445
 20
100.6105
 11
180.9945
 21
100.6105
  0
LINE
  5
148
100
AcDbEntity
  8
0
  6
ByBlock
 62
  256
370
   -1
100
AcDbLine
 10
180.9945
 20
100.6105
 11
180.9945
 21
102.99175
  0
LINE
  5
149
100
AcDbEntity
  8
0
  6
ByBlock
 62
  256
370
   -1
100
AcDbLine
 10
180.9945
 20
102.99175
 11
200.1945
 21
102.99175
  0
LINE
  5
14A
100
AcDbEntity
  8
0
  6
ByBlock
 62
  256
370
   -1
100
AcDbLine
 10
200.1945
 20
102.99175
 11
200.1945
 21
100.61055
  0
LINE
  5
14B
100
AcDbEntity
  8
0
  6
ByBlock
 62
  256
370
   -1
100
AcDbLine
 10
200.1945
 20
100.61055
 11
219.2425
 21
100.61055
  0
LINE
  5
14C
100
AcDbEntity
  8
0
  6
ByBlock
 62
  256
370
   -1
100
AcDbLine
 10
219.2425
 20
100.61055
 11
219.2425
 21
95.84805000000001
  0
LINE
  5
14D
100
AcDbEntity
  8
0
  6
ByBlock
 62
  256
370
   -1
100
AcDbLine
 10
219.2425
 20
95.84805000000001
 11
314.4695
 21
95.84805000000001
  0
LINE
  5
14E
100
AcDbEntity
  8
0
  6
ByBlock
 62
  256
370
   -1
100
AcDbLine
 10
314.4695
 20
95.84805000000001
 11
314.4695
 21
76.64804999999998
  0
LINE
  5
14F
100
AcDbEntity
  8
0
  6
ByBlock
 62
  256
370
   -1
100
AcDbLine
 10
314.4695
 20
76.64804999999998
 11
304.9065000000001
 21
76.64804999999998
  0
LINE
  5
150
100
AcDbEntity
  8
0
  6
ByBlock
 62
  256
370
   -1
100
AcDbLine
 10
304.9065000000001
 20
76.64804999999998
 11
304.9065000000001
 21
57.59805000000001
  0
LINE
  5
151
100
AcDbEntity
  8
0
  6
ByBlock
 62
  256
370
   -1
100
AcDbLine
 10
304.9065000000001
 20
57.59805000000001
 11
300.2005
 21
57.59805000000001
  0
LINE
  5
152
100
AcDbEntity
  8
0
  6
ByBlock
 62
  256
370
   -1
100
AcDbLine
 10
300.2005
 20
57.59805000000001
 11
300.2005
 21
38.54805
  0
LINE
  5
153
100
AcDbEntity
  8
0
  6
ByBlock
 62
  256
370
   -1
100
AcDbLine
 10
300.2005
 20
38.54805
 11
290.6815
 21
38.54805
  0
LINE
  5
154
100
AcDbEntity
  8
0
  6
ByBlock
 62
  256
370
   -1
100
AcDbLine
 10
290.6815
 20
38.54805
 11
290.6815
 21
19.55277999999998
  0
LINE
  5
155
100
AcDbEntity
  8
0
  6
ByBlock
 62
  256
370
   -1
100
AcDbLine
 10
290.6815
 20
19.55277999999998
 11
309.7315
 21
19.55277999999998
  0
LINE
  5
156
100
AcDbEntity
  8
0
  6
ByBlock
 62
  256
370
   -1
100
AcDbLine
 10
309.7315
 20
19.55277999999998
 11
309.7315
 21
0.3527799999999814
  0
LINE
  5
157
100
AcDbEntity
  8
0
  6
ByBlock
 62
  256
370
   -1
100
AcDbLine
 10
309.7315
 20
0.3527799999999814
 11
142.8945
 21
0.3527799999999814
  0
LINE
  5
158
100
AcDbEntity
  8
0
  6
ByBlock
 62
  256
370
   -1
100
AcDbLine
 10
149.995
 20
95.6289
 11
149.995
 21
96.6289
  0
LINE
  5
159
100
AcDbEntity
  8
0
  6
ByBlock
 62
  256
370
   -1
100
AcDbLine
 10
149.995
 20
96.6289
 11
154.995
 21
96.6289
  0
LINE
  5
15A
100
AcDbEntity
  8
0
  6
ByBlock
 62
  256
370
   -1
100
AcDbLine
 10
154.995
 20
96.6289
 11
154.995
 21
95.6289
  0
LINE
  5
15B
100
AcDbEntity
  8
0
  6
ByBlock
 62
  256
370
   -1
100
AcDbLine
 10
154.995
 20
95.6289
 11
149.995
 21
95.6289
  0
LINE
  5
15C
100
AcDbEntity
  8
0
  6
ByBlock
 62
  256
370
   -1
100
AcDbLine
 10
149.995
 20
81.6296
 11
149.995
 21
80.6296
  0
LINE
  5
15D
100
AcDbEntity
  8
0
  6
ByBlock
 62
  256
370
   -1
100
AcDbLine
 10
149.995
 20
80.6296
 11
154.995
 21
80.6296
  0
LINE
  5
15E
100
AcDbEntity
  8
0
  6
ByBlock
 62
  256
370
   -1
100
AcDbLine
 10
154.995
 20
80.6296
 11
154.995
 21
81.6296
  0
LINE
  5
15F
100
AcDbEntity
  8
0
  6
ByBlock
 62
  256
370
   -1
100
AcDbLine
 10
154.995
 20
81.6296
 11
149.995
 21
81.6296
  0
LINE
  5
160
100
AcDbEntity
  8
0
  6
ByBlock
 62
  256
370
   -1
100
AcDbLine
 10
169.045
 20
98.01020000000001
 11
169.045
 21
99.01020000000001
  0
LINE
  5
161
100
AcDbEntity
  8
0
  6
ByBlock
 62
  256
370
   -1
100
AcDbLine
 10
169.045
 20
99.01020000000001
 11
174.045
 21
99.01020000000001
  0
LINE
  5
162
100
AcDbEntity
  8
0
  6
ByBlock
 62
  256
370
   -1
100
AcDbLine
 10
174.045
 20
99.01020000000001
 11
174.045
 21
98.01020000000001
  0
LINE
  5
163
100
AcDbEntity
  8
0
  6
ByBlock
 62
  256
370
   -1
100
AcDbLine
 10
174.045
 20
98.01020000000001
 11
169.045
 21
98.01020000000001
  0
LINE
  5
164
100
AcDbEntity
  8
0
  6
ByBlock
 62
  256
370
   -1
100
AcDbLine
 10
169.045
 20
84.01090000000001
 11
169.045
 21
83.01090000000001
  0
LINE
  5
165
100
AcDbEntity
  8
0
  6
ByBlock
 62
  256
370
   -1
100
AcDbLine
 10
169.045
 20
83.01090000000001
 11
174.045
 21
83.01090000000001
  0
LINE
  5
166
100
AcDbEntity
  8
0
  6
ByBlock
 62
  256
370
   -1
100
AcDbLine
 10
174.045
 20
83.01090000000001
 11
174.045
 21
84.01090000000001
  0
LINE
  5
167
100
AcDbEntity
  8
0
  6
ByBlock
 62
  256
370
   -1
100
AcDbLine
 10
174.045
 20
84.01090000000001
 11
169.045
 21
84.01090000000001
  0
LINE
  5
168
100
AcDbEntity
  8
0
  6
ByBlock
 62
  256
370
   -1
100
AcDbLine
 10
188.095
 20
100.3914
 11
188.095
 21
101.3914
  0
LINE
  5
169
100
AcDbEntity
  8
0
  6
ByBlock
 62
  256
370
   -1
100
AcDbLine
 10
188.095
 20
101.3914
 11
193.095
 21
101.3914
  0
LINE
  5
16A
100
AcDbEntity
  8
0
  6
ByBlock
 62
  256
370
   -1
100
AcDbLine
 10
193.095
 20
101.3914
 11
193.095
 21
100.3914
  0
LINE
  5
16B
100
AcDbEntity
  8
0
  6
ByBlock
 62
  256
370
   -1
100
AcDbLine
 10
193.095
 20
100.3914
 11
188.095
 21
100.3914
  0
LINE
  5
16C
100
AcDbEntity
  8
0
  6
ByBlock
 62
  256
370
   -1
100
AcDbLine
 10
188.095
 20
86.39209999999999
 11
188.095
 21
85.39209999999999
  0
LINE
  5
16D
100
AcDbEntity
  8
0
  6
ByBlock
 62
  256
370
   -1
100
AcDbLine
 10
188.095
 20
85.39209999999999
 11
193.095
 21
85.39209999999999
  0
LINE
  5
16E
100
AcDbEntity
  8
0
  6
ByBlock
 62
  256
370
   -1
100
AcDbLine
 10
193.095
 20
85.39209999999999
 11
193.095
 21
86.39209999999999
  0
LINE
  5
16F
100
AcDbEntity
  8
0
  6
ByBlock
 62
  256
370
   -1
100
AcDbLine
 10
193.095
 20
86.39209999999999
 11
188.095
 21
86.39209999999999
  0
LINE
  5
170
100
AcDbEntity
  8
0
  6
ByBlock
 62
  256
370
   -1
100
AcDbLine
 10
207.143
 20
98.01020000000001
 11
207.143
 21
99.01020000000001
  0
LINE
  5
171
100
AcDbEntity
  8
0
  6
ByBlock
 62
  256
370
   -1
100
AcDbLine
 10
207.143
 20
99.01020000000001
 11
212.143
 21
99.01020000000001
  0
LINE
  5
172
100
AcDbEntity
  8
0
  6
ByBlock
 62
  256
370
   -1
100
AcDbLine
 10
212.143
 20
99.01020000000001
 11
212.143
 21
98.01020000000001
  0
LINE
  5
173
100
AcDbEntity
  8
0
  6
ByBlock
 62
  256
370
   -1
100
AcDbLine
 10
212.143
 20
98.01020000000001
 11
207.143
 21
98.01020000000001
  0
LINE
  5
174
100
AcDbEntity
  8
0
  6
ByBlock
 62
  256
370
   -1
100
AcDbLine
 10
207.143
 20
84.01090000000001
 11
207.143
 21
83.01090000000001
  0
LINE
  5
175
100
AcDbEntity
  8
0
  6
ByBlock
 62
  256
370
   -1
100
AcDbLine
 10
207.143
 20
83.01090000000001
 11
212.143
 21
83.01090000000001
  0
LINE
  5
176
100
AcDbEntity
  8
0
  6
ByBlock
 62
  256
370
   -1
100
AcDbLine
 10
212.143
 20
83.01090000000001
 11
212.143
 21
84.01090000000001
  0
LINE
  5
177
100
AcDbEntity
  8
0
  6
ByBlock
 62
  256
370
   -1
100
AcDbLine
 10
212.143
 20
84.01090000000001
 11
207.143
 21
84.01090000000001
  0
LINE
  5
178
100
AcDbEntity
  8
0
  6
ByBlock
 62
  256
370
   -1
100
AcDbLine
 10
226.195
 20
93.24770000000001
 11
226.195
 21
94.24770000000001
  0
LINE
  5
179
100
AcDbEntity
  8
0
  6
ByBlock
 62
  256
370
   -1
100
AcDbLine
 10
226.195
 20
94.24770000000001
 11
231.195
 21
94.24770000000001
  0
LINE
  5
17A
100
AcDbEntity
  8
0
  6
ByBlock
 62
  256
370
   -1
100
AcDbLine
 10
231.195
 20
94.24770000000001
 11
231.195
 21
93.24770000000001
  0
LINE
  5
17B
100
AcDbEntity
  8
0
  6
ByBlock
 62
  256
370
   -1
100
AcDbLine
 10
231.195
 20
93.24770000000001
 11
226.195
 21
93.24770000000001
  0
LINE
  5
17C
100
AcDbEntity
  8
0
  6
ByBlock
 62
  256
370
   -1
100
AcDbLine
 10
226.195
 20
79.2484
 11
226.195
 21
78.2484
  0
LINE
  5
17D
100
AcDbEntity
  8
0
  6
ByBlock
 62
  256
370
   -1
100
AcDbLine
 10
226.195
 20
78.2484
 11
231.195
 21
78.2484
  0
LINE
  5
17E
100
AcDbEntity
  8
0
  6
ByBlock
 62
  256
370
   -1
100
AcDbLine
 10
231.195
 20
78.2484
 11
231.195
 21
79.2484
  0
LINE
  5
17F
100
AcDbEntity
  8
0
  6
ByBlock
 62
  256
370
   -1
100
AcDbLine
 10
231.195
 20
79.2484
 11
226.195
 21
79.2484
  0
LINE
  5
180
100
AcDbEntity
  8
0
  6
ByBlock
 62
  256
370
   -1
100
AcDbLine
 10
245.245
 20
93.24770000000001
 11
245.245
 21
94.24770000000001
  0
LINE
  5
181
100
AcDbEntity
  8
0
  6
ByBlock
 62
  256
370
   -1
100
AcDbLine
 10
245.245
 20
94.24770000000001
 11
250.245
 21
94.24770000000001
  0
LINE
  5
182
100
AcDbEntity
  8
0
  6
ByBlock
 62
  256
370
   -1
100
AcDbLine
 10
250.245
 20
94.24770000000001
 11
250.245
 21
93.24770000000001
  0
LINE
  5
183
100
AcDbEntity
  8
0
  6
ByBlock
 62
  256
370
   -1
100
AcDbLine
 10
250.245
 20
93.24770000000001
 11
245.245
 21
93.24770000000001
  0
LINE
  5
184
100
AcDbEntity
  8
0
  6
ByBlock
 62
  256
370
   -1
100
AcDbLine
 10
245.245
 20
79.2484
 11
245.245
 21
78.2484
  0
LINE
  5
185
100
AcDbEntity
  8
0
  6
ByBlock
 62
  256
370
   -1
100
AcDbLine
 10
245.245
 20
78.2484
 11
250.245
 21
78.2484
  0
LINE
  5
186
100
AcDbEntity
  8
0
  6
ByBlock
 62
  256
370
   -1
100
AcDbLine
 10
250.245
 20
78.2484
 11
250.245
 21
79.2484
  0
LINE
  5
187
100
AcDbEntity
  8
0
  6
ByBlock
 62
  256
370
   -1
100
AcDbLine
 10
250.245
 20
79.2484
 11
245.245
 21
79.2484
  0
LINE
  5
188
100
AcDbEntity
  8
0
  6
ByBlock
 62
  256
370
   -1
100
AcDbLine
 10
264.295
 20
93.24770000000001
 11
264.295
 21
94.24770000000001
  0
LINE
  5
189
100
AcDbEntity
  8
0
  6
ByBlock
 62
  256
370
   -1
100
AcDbLine
 10
264.295
 20
94.24770000000001
 11
269.295
 21
94.24770000000001
  0
LINE
  5
18A
100
AcDbEntity
  8
0
  6
ByBlock
 62
  256
370
   -1
100
AcDbLine
 10
269.295
 20
94.24770000000001
 11
269.295
 21
93.24770000000001
  0
LINE
  5
18B
100
AcDbEntity
  8
0
  6
ByBlock
 62
  256
370
   -1
100
AcDbLine
 10
269.295
 20
93.24770000000001
 11
264.295
 21
93.24770000000001
  0
LINE
  5
18C
100
AcDbEntity
  8
0
  6
ByBlock
 62
  256
370
   -1
100
AcDbLine
 10
264.295
 20
79.2484
 11
264.295
 21
78.2484
  0
LINE
  5
18D
100
AcDbEntity
  8
0
  6
ByBlock
 62
  256
370
   -1
100
AcDbLine
 10
264.295
 20
78.2484
 11
269.295
 21
78.2484
  0
LINE
  5
18E
100
AcDbEntity
  8
0
  6
ByBlock
 62
  256
370
   -1
100
AcDbLine
 10
269.295
 20
78.2484
 11
269.295
 21
79.2484
  0
LINE
  5
18F
100
AcDbEntity
  8
0
  6
ByBlock
 62
  256
370
   -1
100
AcDbLine
 10
269.295
 20
79.2484
 11
264.295
 21
79.2484
  0
LINE
  5
190
100
AcDbEntity
  8
0
  6
ByBlock
 62
  256
370
   -1
100
AcDbLine
 10
292.87
 20
93.24770000000001
 11
292.87
 21
94.24770000000001
  0
LINE
  5
191
100
AcDbEntity
  8
0
  6
ByBlock
 62
  256
370
   -1
100
AcDbLine
 10
292.87
 20
94.24770000000001
 11
297.87
 21
94.24770000000001
  0
LINE
  5
192
100
AcDbEntity
  8
0
  6
ByBlock
 62
  256
370
   -1
100
AcDbLine
 10
297.87
 20
94.24770000000001
 11
297.87
 21
93.24770000000001
  0
LINE
  5
193
100
AcDbEntity
  8
0
  6
ByBlock
 62
  256
370
   -1
100
AcDbLine
 10
297.87
 20
93.24770000000001
 11
292.87
 21
93.24770000000001
  0
LINE
  5
194
100
AcDbEntity
  8
0
  6
ByBlock
 62
  256
370
   -1
100
AcDbLine
 10
292.87
 20
79.2484
 11
292.87
 21
78.2484
  0
LINE
  5
195
100
AcDbEntity
  8
0
  6
ByBlock
 62
  256
370
   -1
100
AcDbLine
 10
292.87
 20
78.2484
 11
297.87
 21
78.2484
  0
LINE
  5
196
100
AcDbEntity
  8
0
  6
ByBlock
 62
  256
370
   -1
100
AcDbLine
 10
297.87
 20
78.2484
 11
297.87
 21
79.2484
  0
LINE
  5
197
100
AcDbEntity
  8
0
  6
ByBlock
 62
  256
370
   -1
100
AcDbLine
 10
297.87
 20
79.2484
 11
292.87
 21
79.2484
  0
LINE
  5
198
100
AcDbEntity
  8
0
  6
ByBlock
 62
  256
370
   -1
100
AcDbLine
 10
288.107
 20
74.1977
 11
288.107
 21
75.1977
  0
LINE
  5
199
100
AcDbEntity
  8
0
  6
ByBlock
 62
  256
370
   -1
100
AcDbLine
 10
288.107
 20
75.1977
 11
293.107
 21
75.1977
  0
LINE
  5
19A
100
AcDbEntity
  8
0
  6
ByBlock
 62
  256
370
   -1
100
AcDbLine
 10
293.107
 20
75.1977
 11
293.107
 21
74.1977
  0
LINE
  5
19B
100
AcDbEntity
  8
0
  6
ByBlock
 62
  256
370
   -1
100
AcDbLine
 10
293.107
 20
74.1977
 11
288.107
 21
74.1977
  0
LINE
  5
19C
100
AcDbEntity
  8
0
  6
ByBlock
 62
  256
370
   -1
100
AcDbLine
 10
288.107
 20
60.1984
 11
288.107
 21
59.1984
  0
LINE
  5
19D
100
AcDbEntity
  8
0
  6
ByBlock
 62
  256
370
   -1
100
AcDbLine
 10
288.107
 20
59.1984
 11
293.107
 21
59.1984
  0
LINE
  5
19E
100
AcDbEntity
  8
0
  6
ByBlock
 62
  256
370
   -1
100
AcDbLine
 10
293.107
 20
59.1984
 11
293.107
 21
60.1984
  0
LINE
  5
19F
100
AcDbEntity
  8
0
  6
ByBlock
 62
  256
370
   -1
100
AcDbLine
 10
293.107
 20
60.1984
 11
288.107
 21
60.1984
  0
LINE
  5
1A0
100
AcDbEntity
  8
0
  6
ByBlock
 62
  256
370
   -1
100
AcDbLine
 10
264.295
 20
74.1977
 11
264.295
 21
75.1977
  0
LINE
  5
1A1
100
AcDbEntity
  8
0
  6
ByBlock
 62
  256
370
   -1
100
AcDbLine
 10
264.295
 20
75.1977
 11
269.295
 21
75.1977
  0
LINE
  5
1A2
100
AcDbEntity
  8
0
  6
ByBlock
 62
  256
370
   -1
100
AcDbLine
 10
269.295
 20
75.1977
 11
269.295
 21
74.1977
  0
LINE
  5
1A3
100
AcDbEntity
  8
0
  6
ByBlock
 62
  256
370
   -1
100
AcDbLine
 10
269.295
 20
74.1977
 11
264.295
 21
74.1977
  0
LINE
  5
1A4
100
AcDbEntity
  8
0
  6
ByBlock
 62
  256
370
   -1
100
AcDbLine
 10
264.295
 20
60.1984
 11
264.295
 21
59.1984
  0
LINE
  5
1A5
100
AcDbEntity
  8
0
  6
ByBlock
 62
  256
370
   -1
100
AcDbLine
 10
264.295
 20
59.1984
 11
269.295
 21
59.1984
  0
LINE
  5
1A6
100
AcDbEntity
  8
0
  6
ByBlock
 62
  256
370
   -1
100
AcDbLine
 10
269.295
 20
59.1984
 11
269.295
 21
60.1984
  0
LINE
  5
1A7
100
AcDbEntity
  8
0
  6
ByBlock
 62
  256
370
   -1
100
AcDbLine
 10
269.295
 20
60.1984
 11
264.295
 21
60.1984
  0
LINE
  5
1A8
100
AcDbEntity
  8
0
  6
ByBlock
 62
  256
370
   -1
100
AcDbLine
 10
245.245
 20
74.1977
 11
245.245
 21
75.1977
  0
LINE
  5
1A9
100
AcDbEntity
  8
0
  6
ByBlock
 62
  256
370
   -1
100
AcDbLine
 10
245.245
 20
75.1977
 11
250.245
 21
75.1977
  0
LINE
  5
1AA
100
AcDbEntity
  8
0
  6
ByBlock
 62
  256
370
   -1
100
AcDbLine
 10
250.245
 20
75.1977
 11
250.245
 21
74.1977
  0
LINE
  5
1AB
100
AcDbEntity
  8
0
  6
ByBlock
 62
  256
370
   -1
100
AcDbLine
 10
250.245
 20
74.1977
 11
245.245
 21
74.1977
  0
LINE
  5
1AC
100
AcDbEntity
  8
0
  6
ByBlock
 62
  256
370
   -1
100
AcDbLine
 10
245.245
 20
60.1984
 11
245.245
 21
59.1984
  0
LINE
  5
1AD
100
AcDbEntity
  8
0
  6
ByBlock
 62
  256
370
   -1
100
AcDbLine
 10
245.245
 20
59.1984
 11
250.245
 21
59.1984
  0
LINE
  5
1AE
100
AcDbEntity
  8
0
  6
ByBlock
 62
  256
370
   -1
100
AcDbLine
 10
250.245
 20
59.1984
 11
250.245
 21
60.1984
  0
LINE
  5
1AF
100
AcDbEntity
  8
0
  6
ByBlock
 62
  256
370
   -1
100
AcDbLine
 10
250.245
 20
60.1984
 11
245.245
 21
60.1984
  0
LINE
  5
1B0
100
AcDbEntity
  8
0
  6
ByBlock
 62
  256
370
   -1
100
AcDbLine
 10
226.195
 20
74.1977
 11
226.195
 21
75.1977
  0
LINE
  5
1B1
100
AcDbEntity
  8
0
  6
ByBlock
 62
  256
370
   -1
100
AcDbLine
 10
226.195
 20
75.1977
 11
231.195
 21
75.1977
  0
LINE
  5
1B2
100
AcDbEntity
  8
0
  6
ByBlock
 62
  256
370
   -1
100
AcDbLine
 10
231.195
 20
75.1977
 11
231.195
 21
74.1977
  0
LINE
  5
1B3
100
AcDbEntity
  8
0
  6
ByBlock
 62
  256
370
   -1
100
AcDbLine
 10
231.195
 20
74.1977
 11
226.195
 21
74.1977
  0
LINE
  5
1B4
100
AcDbEntity
  8
0
  6
ByBlock
 62
  256
370
   -1
100
AcDbLine
 10
226.195
 20
60.1984
 11
226.195
 21
59.1984
  0
LINE
  5
1B5
100
AcDbEntity
  8
0
  6
ByBlock
 62
  256
370
   -1
100
AcDbLine
 10
226.195
 20
59.1984
 11
231.195
 21
59.1984
  0
LINE
  5
1B6
100
AcDbEntity
  8
0
  6
ByBlock
 62
  256
370
   -1
100
AcDbLine
 10
231.195
 20
59.1984
 11
231.195
 21
60.1984
  0
LINE
  5
1B7
100
AcDbEntity
  8
0
  6
ByBlock
 62
  256
370
   -1
100
AcDbLine
 10
231.195
 20
60.1984
 11
226.195
 21
60.1984
  0
LINE
  5
1B8
100
AcDbEntity
  8
0
  6
ByBlock
 62
  256
370
   -1
100
AcDbLine
 10
207.143
 20
78.9602
 11
207.143
 21
79.9602
  0
LINE
  5
1B9
100
AcDbEntity
  8
0
  6
ByBlock
 62
  256
370
   -1
100
AcDbLine
 10
207.143
 20
79.9602
 11
212.143
 21
79.9602
  0
LINE
  5
1BA
100
AcDbEntity
  8
0
  6
ByBlock
 62
  256
370
   -1
100
AcDbLine
 10
212.143
 20
79.9602
 11
212.143
 21
78.9602
  0
LINE
  5
1BB
100
AcDbEntity
  8
0
  6
ByBlock
 62
  256
370
   -1
100
AcDbLine
 10
212.143
 20
78.9602
 11
207.143
 21
78.9602
  0
LINE
  5
1BC
100
AcDbEntity
  8
0
  6
ByBlock
 62
  256
370
   -1
100
AcDbLine
 10
207.143
 20
64.9609
 11
207.143
 21
63.9609
  0
LINE
  5
1BD
100
AcDbEntity
  8
0
  6
ByBlock
 62
  256
370
   -1
100
AcDbLine
 10
207.143
 20
63.9609
 11
212.143
 21
63.9609
  0
LINE
  5
1BE
100
AcDbEntity
  8
0
  6
ByBlock
 62
  256
370
   -1
100
AcDbLine
 10
212.143
 20
63.9609
 11
212.143
 21
64.9609
  0
LINE
  5
1BF
100
AcDbEntity
  8
0
  6
ByBlock
 62
  256
370
   -1
100
AcDbLine
 10
212.143
 20
64.9609
 11
207.143
 21
64.9609
  0
LINE
  5
1C0
100
AcDbEntity
  8
0
  6
ByBlock
 62
  256
370
   -1
100
AcDbLine
 10
188.095
 20
81.34140000000001
 11
188.095
 21
82.34140000000001
  0
LINE
  5
1C1
100
AcDbEntity
  8
0
  6
ByBlock
 62
  256
370
   -1
100
AcDbLine
 10
188.095
 20
82.34140000000001
 11
193.095
 21
82.34140000000001
  0
LINE
  5
1C2
100
AcDbEntity
  8
0
  6
ByBlock
 62
  256
370
   -1
100
AcDbLine
 10
193.095
 20
82.34140000000001
 11
193.095
 21
81.34140000000001
  0
LINE
  5
1C3
100
AcDbEntity
  8
0
  6
ByBlock
 62
  256
370
   -1
100
AcDbLine
 10
193.095
 20
81.34140000000001
 11
188.095
 21
81.34140000000001
  0
LINE
  5
1C4
100
AcDbEntity
  8
0
  6
ByBlock
 62
  256
370
   -1
100
AcDbLine
 10
188.095
 20
67.3421
 11
188.095
 21
66.3421
  0
LINE
  5
1C5
100
AcDbEntity
  8
0
  6
ByBlock
 62
  256
370
   -1
100
AcDbLine
 10
188.095
 20
66.3421
 11
193.095
 21
66.3421
  0
LINE
  5
1C6
100
AcDbEntity
  8
0
  6
ByBlock
 62
  256
370
   -1
100
AcDbLine
 10
193.095
 20
66.3421
 11
193.095
 21
67.3421
  0
LINE
  5
1C7
100
AcDbEntity
  8
0
  6
ByBlock
 62
  256
370
   -1
100
AcDbLine
 10
193.095
 20
67.3421
 11
188.095
 21
67.3421
  0
LINE
  5
1C8
100
AcDbEntity
  8
0
  6
ByBlock
 62
  256
370
   -1
100
AcDbLine
 10
169.045
 20
78.9602
 11
169.045
 21
79.9602
  0
LINE
  5
1C9
100
AcDbEntity
  8
0
  6
ByBlock
 62
  256
370
   -1
100
AcDbLine
 10
169.045
 20
79.9602
 11
174.045
 21
79.9602
  0
LINE
  5
1CA
100
AcDbEntity
  8
0
  6
ByBlock
 62
  256
370
   -1
100
AcDbLine
 10
174.045
 20
79.9602
 11
174.045
 21
78.9602
  0
LINE
  5
1CB
100
AcDbEntity
  8
0
  6
ByBlock
 62
  256
370
   -1
100
AcDbLine
 10
174.045
 20
78.9602
 11
169.045
 21
78.9602
  0
LINE
  5
1CC
100
AcDbEntity
  8
0
  6
ByBlock
 62
  256
370
   -1
100
AcDbLine
 10
169.045
 20
64.9609
 11
169.045
 21
63.9609
  0
LINE
  5
1CD
100
AcDbEntity
  8
0
  6
ByBlock
 62
  256
370
   -1
100
AcDbLine
 10
169.045
 20
63.9609
 11
174.045
 21
63.9609
  0
LINE
  5
1CE
100
AcDbEntity
  8
0
  6
ByBlock
 62
  256
370
   -1
100
AcDbLine
 10
174.045
 20
63.9609
 11
174.045
 21
64.9609
  0
LINE
  5
1CF
100
AcDbEntity
  8
0
  6
ByBlock
 62
  256
370
   -1
100
AcDbLine
 10
174.045
 20
64.9609
 11
169.045
 21
64.9609
  0
LINE
  5
1D0
100
AcDbEntity
  8
0
  6
ByBlock
 62
  256
370
   -1
100
AcDbLine
 10
149.995
 20
76.5789
 11
149.995
 21
77.5789
  0
LINE
  5
1D1
100
AcDbEntity
  8
0
  6
ByBlock
 62
  256
370
   -1
100
AcDbLine
 10
149.995
 20
77.5789
 11
154.995
 21
77.5789
  0
LINE
  5
1D2
100
AcDbEntity
  8
0
  6
ByBlock
 62
  256
370
   -1
100
AcDbLine
 10
154.995
 20
77.5789
 11
154.995
 21
76.5789
  0
LINE
  5
1D3
100
AcDbEntity
  8
0
  6
ByBlock
 62
  256
370
   -1
100
AcDbLine
 10
154.995
 20
76.5789
 11
149.995
 21
76.5789
  0
LINE
  5
1D4
100
AcDbEntity
  8
0
  6
ByBlock
 62
  256
370
   -1
100
AcDbLine
 10
149.995
 20
62.5796
 11
149.995
 21
61.5796
  0
LINE
  5
1D5
100
AcDbEntity
  8
0
  6
ByBlock
 62
  256
370
   -1
100
AcDbLine
 10
149.995
 20
61.5796
 11
154.995
 21
61.5796
  0
LINE
  5
1D6
100
AcDbEntity
  8
0
  6
ByBlock
 62
  256
370
   -1
100
AcDbLine
 10
154.995
 20
61.5796
 11
154.995
 21
62.5796
  0
LINE
  5
1D7
100
AcDbEntity
  8
0
  6
ByBlock
 62
  256
370
   -1
100
AcDbLine
 10
154.995
 20
62.5796
 11
149.995
 21
62.5796
  0
LINE
  5
1D8
100
AcDbEntity
  8
0
  6
ByBlock
 62
  256
370
   -1
100
AcDbLine
 10
149.995
 20
57.52890000000001
 11
149.995
 21
58.52890000000001
  0
LINE
  5
1D9
100
AcDbEntity
  8
0
  6
ByBlock
 62
  256
370
   -1
100
AcDbLine
 10
149.995
 20
58.52890000000001
 11
154.995
 21
58.52890000000001
  0
LINE
  5
1DA
100
AcDbEntity
  8
0
  6
ByBlock
 62
  256
370
   -1
100
AcDbLine
 10
154.995
 20
58.52890000000001
 11
154.995
 21
57.52890000000001
  0
LINE
  5
1DB
100
AcDbEntity
  8
0
  6
ByBlock
 62
  256
370
   -1
100
AcDbLine
 10
154.995
 20
57.52890000000001
 11
149.995
 21
57.52890000000001
  0
LINE
  5
1DC
100
AcDbEntity
  8
0
  6
ByBlock
 62
  256
370
   -1
100
AcDbLine
 10
149.995
 20
43.5296
 11
149.995
 21
42.5296
  0
LINE
  5
1DD
100
AcDbEntity
  8
0
  6
ByBlock
 62
  256
370
   -1
100
AcDbLine
 10
149.995
 20
42.5296
 11
154.995
 21
42.5296
  0
LINE
  5
1DE
100
AcDbEntity
  8
0
  6
ByBlock
 62
  256
370
   -1
100
AcDbLine
 10
154.995
 20
42.5296
 11
154.995
 21
43.5296
  0
LINE
  5
1DF
100
AcDbEntity
  8
0
  6
ByBlock
 62
  256
370
   -1
100
AcDbLine
 10
154.995
 20
43.5296
 11
149.995
 21
43.5296
  0
LINE
  5
1E0
100
AcDbEntity
  8
0
  6
ByBlock
 62
  256
370
   -1
100
AcDbLine
 10
169.045
 20
59.9102
 11
169.045
 21
60.9102
  0
LINE
  5
1E1
100
AcDbEntity
  8
0
  6
ByBlock
 62
  256
370
   -1
100
AcDbLine
 10
169.045
 20
60.9102
 11
174.045
 21
60.9102
  0
LINE
  5
1E2
100
AcDbEntity
  8
0
  6
ByBlock
 62
  256
370
   -1
100
AcDbLine
 10
174.045
 20
60.9102
 11
174.045
 21
59.9102
  0
LINE
  5
1E3
100
AcDbEntity
  8
0
  6
ByBlock
 62
  256
370
   -1
100
AcDbLine
 10
174.045
 20
59.9102
 11
169.045
 21
59.9102
  0
LINE
  5
1E4
100
AcDbEntity
  8
0
  6
ByBlock
 62
  256
370
   -1
100
AcDbLine
 10
169.045
 20
45.9109
 11
169.045
 21
44.9109
  0
LINE
  5
1E5
100
AcDbEntity
  8
0
  6
ByBlock
 62
  256
370
   -1
100
AcDbLine
 10
169.045
 20
44.9109
 11
174.045
 21
44.9109
  0
LINE
  5
1E6
100
AcDbEntity
  8
0
  6
ByBlock
 62
  256
370
   -1
100
AcDbLine
 10
174.045
 20
44.9109
 11
174.045
 21
45.9109
  0
LINE
  5
1E7
100
AcDbEntity
  8
0
  6
ByBlock
 62
  256
370
   -1
100
AcDbLine
 10
174.045
 20
45.9109
 11
169.045
 21
45.9109
  0
LINE
  5
1E8
100
AcDbEntity
  8
0
  6
ByBlock
 62
  256
370
   -1
100
AcDbLine
 10
188.095
 20
62.2914
 11
188.095
 21
63.2914
  0
LINE
  5
1E9
100
AcDbEntity
  8
0
  6
ByBlock
 62
  256
370
   -1
100
AcDbLine
 10
188.095
 20
63.2914
 11
193.095
 21
63.2914
  0
LINE
  5
1EA
100
AcDbEntity
  8
0
  6
ByBlock
 62
  256
370
   -1
100
AcDbLine
 10
193.095
 20
63.2914
 11
193.095
 21
62.2914
  0
LINE
  5
1EB
100
AcDbEntity
  8
0
  6
ByBlock
 62
  256
370
   -1
100
AcDbLine
 10
193.095
 20
62.2914
 11
188.095
 21
62.2914
  0
LINE
  5
1EC
100
AcDbEntity
  8
0
  6
ByBlock
 62
  256
370
   -1
100
AcDbLine
 10
188.095
 20
48.2921
 11
188.095
 21
47.2921
  0
LINE
  5
1ED
100
AcDbEntity
  8
0
  6
ByBlock
 62
  256
370
   -1
100
AcDbLine
 10
188.095
 20
47.2921
 11
193.095
 21
47.2921
  0
LINE
  5
1EE
100
AcDbEntity
  8
0
  6
ByBlock
 62
  256
370
   -1
100
AcDbLine
 10
193.095
 20
47.2921
 11
193.095
 21
48.2921
  0
LINE
  5
1EF
100
AcDbEntity
  8
0
  6
ByBlock
 62
  256
370
   -1
100
AcDbLine
 10
193.095
 20
48.2921
 11
188.095
 21
48.2921
  0
LINE
  5
1F0
100
AcDbEntity
  8
0
  6
ByBlock
 62
  256
370
   -1
100
AcDbLine
 10
207.143
 20
59.9102
 11
207.143
 21
60.9102
  0
LINE
  5
1F1
100
AcDbEntity
  8
0
  6
ByBlock
 62
  256
370
   -1
100
AcDbLine
 10
207.143
 20
60.9102
 11
212.143
 21
60.9102
  0
LINE
  5
1F2
100
AcDbEntity
  8
0
  6
ByBlock
 62
  256
370
   -1
100
AcDbLine
 10
212.143
 20
60.9102
 11
212.143
 21
59.9102
  0
LINE
  5
1F3
100
AcDbEntity
  8
0
  6
ByBlock
 62
  256
370
   -1
100
AcDbLine
 10
212.143
 20
59.9102
 11
207.143
 21
59.9102
  0
LINE
  5
1F4
100
AcDbEntity
  8
0
  6
ByBlock
 62
  256
370
   -1
100
AcDbLine
 10
207.143
 20
45.9109
 11
207.143
 21
44.9109
  0
LINE
  5
1F5
100
AcDbEntity
  8
0
  6
ByBlock
 62
  256
370
   -1
100
AcDbLine
 10
207.143
 20
44.9109
 11
212.143
 21
44.9109
  0
LINE
  5
1F6
100
AcDbEntity
  8
0
  6
ByBlock
 62
  256
370
   -1
100
AcDbLine
 10
212.143
 20
44.9109
 11
212.143
 21
45.9109
  0
LINE
  5
1F7
100
AcDbEntity
  8
0
  6
ByBlock
 62
  256
370
   -1
100
AcDbLine
 10
212.143
 20
45.9109
 11
207.143
 21
45.9109
  0
LINE
  5
1F8
100
AcDbEntity
  8
0
  6
ByBlock
 62
  256
370
   -1
100
AcDbLine
 10
226.195
 20
55.14770000000001
 11
226.195
 21
56.14770000000001
  0
LINE
  5
1F9
100
AcDbEntity
  8
0
  6
ByBlock
 62
  256
370
   -1
100
AcDbLine
 10
226.195
 20
56.14770000000001
 11
231.195
 21
56.14770000000001
  0
LINE
  5
1FA
100
AcDbEntity
  8
0
  6
ByBlock
 62
  256
370
   -1
100
AcDbLine
 10
231.195
 20
56.14770000000001
 11
231.195
 21
55.14770000000001
  0
LINE
  5
1FB
100
AcDbEntity
  8
0
  6
ByBlock
 62
  256
370
   -1
100
AcDbLine
 10
231.195
 20
55.14770000000001
 11
226.195
 21
55.14770000000001
  0
LINE
  5
1FC
100
AcDbEntity
  8
0
  6
ByBlock
 62
  256
370
   -1
100
AcDbLine
 10
226.195
 20
41.1484
 11
226.195
 21
40.1484
  0
LINE
  5
1FD
100
AcDbEntity
  8
0
  6
ByBlock
 62
  256
370
   -1
100
AcDbLine
 10
226.195
 20
40.1484
 11
231.195
 21
40.1484
  0
LINE
  5
1FE
100
AcDbEntity
  8
0
  6
ByBlock
 62
  256
370
   -1
100
AcDbLine
 10
231.195
 20
40.1484
 11
231.195
 21
41.1484
  0
LINE
  5
1FF
100
AcDbEntity
  8
0
  6
ByBlock
 62
  256
370
   -1
100
AcDbLine
 10
231.195
 20
41.1484
 11
226.195
 21
41.1484
  0
LINE
  5
200
100
AcDbEntity
  8
0
  6
ByBlock
 62
  256
370
   -1
100
AcDbLine
 10
245.245
 20
55.14770000000001
 11
245.245
 21
56.14770000000001
  0
LINE
  5
201
100
AcDbEntity
  8
0
  6
ByBlock
 62
  256
370
   -1
100
AcDbLine
 10
245.245
 20
56.14770000000001
 11
250.245
 21
56.14770000000001
  0
LINE
  5
202
100
AcDbEntity
  8
0
  6
ByBlock
 62
  256
370
   -1
100
AcDbLine
 10
250.245
 20
56.14770000000001
 11
250.245
 21
55.14770000000001
  0
LINE
  5
203
100
AcDbEntity
  8
0
  6
ByBlock
 62
  256
370
   -1
100
AcDbLine
 10
250.245
 20
55.14770000000001
 11
245.245
 21
55.14770000000001
  0
LINE
  5
204
100
AcDbEntity
  8
0
  6
ByBlock
 62
  256
370
   -1
100
AcDbLine
 10
245.245
 20
41.1484
 11
245.245
 21
40.1484
  0
LINE
  5
205
100
AcDbEntity
  8
0
  6
ByBlock
 62
  256
370
   -1
100
AcDbLine
 10
245.245
 20
40.1484
 11
250.245
 21
40.1484
  0
LINE
  5
206
100
AcDbEntity
  8
0
  6
ByBlock
 62
  256
370
   -1
100
AcDbLine
 10
250.245
 20
40.1484
 11
250.245
 21
41.1484
  0
LINE
  5
207
100
AcDbEntity
  8
0
  6
ByBlock
 62
  256
370
   -1
100
AcDbLine
 10
250.245
 20
41.1484
 11
245.245
 21
41.1484
  0
LINE
  5
208
100
AcDbEntity
  8
0
  6
ByBlock
 62
  256
370
   -1
100
AcDbLine
 10
276.201
 20
55.14770000000001
 11
276.201
 21
56.14770000000001
  0
LINE
  5
209
100
AcDbEntity
  8
0
  6
ByBlock
 62
  256
370
   -1
100
AcDbLine
 10
276.201
 20
56.14770000000001
 11
281.201
 21
56.14770000000001
  0
LINE
  5
20A
100
AcDbEntity
  8
0
  6
ByBlock
 62
  256
370
   -1
100
AcDbLine
 10
281.201
 20
56.14770000000001
 11
281.201
 21
55.14770000000001
  0
LINE
  5
20B
100
AcDbEntity
  8
0
  6
ByBlock
 62
  256
370
   -1
100
AcDbLine
 10
281.201
 20
55.14770000000001
 11
276.201
 21
55.14770000000001
  0
LINE
  5
20C
100
AcDbEntity
  8
0
  6
ByBlock
 62
  256
370
   -1
100
AcDbLine
 10
276.201
 20
41.1484
 11
276.201
 21
40.1484
  0
LINE
  5
20D
100
AcDbEntity
  8
0
  6
ByBlock
 62
  256
370
   -1
100
AcDbLine
 10
276.201
 20
40.1484
 11
281.201
 21
40.1484
  0
LINE
  5
20E
100
AcDbEntity
  8
0
  6
ByBlock
 62
  256
370
   -1
100
AcDbLine
 10
281.201
 20
40.1484
 11
281.201
 21
41.1484
  0
LINE
  5
20F
100
AcDbEntity
  8
0
  6
ByBlock
 62
  256
370
   -1
100
AcDbLine
 10
281.201
 20
41.1484
 11
276.201
 21
41.1484
  0
LINE
  5
210
100
AcDbEntity
  8
0
  6
ByBlock
 62
  256
370
   -1
100
AcDbLine
 10
278.582
 20
36.00240000000001
 11
278.582
 21
37.00240000000001
  0
LINE
  5
211
100
AcDbEntity
  8
0
  6
ByBlock
 62
  256
370
   -1
100
AcDbLine
 10
278.582
 20
37.00240000000001
 11
283.582
 21
37.00240000000001
  0
LINE
  5
212
100
AcDbEntity
  8
0
  6
ByBlock
 62
  256
370
   -1
100
AcDbLine
 10
283.582
 20
37.00240000000001
 11
283.582
 21
36.00240000000001
  0
LINE
  5
213
100
AcDbEntity
  8
0
  6
ByBlock
 62
  256
370
   -1
100
AcDbLine
 10
283.582
 20
36.00240000000001
 11
278.582
 21
36.00240000000001
  0
LINE
  5
214
100
AcDbEntity
  8
0
  6
ByBlock
 62
  256
370
   -1
100
AcDbLine
 10
278.582
 20
22.0031
 11
278.582
 21
21.0031
  0
LINE
  5
215
100
AcDbEntity
  8
0
  6
ByBlock
 62
  256
370
   -1
100
AcDbLine
 10
278.582
 20
21.0031
 11
283.582
 21
21.0031
  0
LINE
  5
216
100
AcDbEntity
  8
0
  6
ByBlock
 62
  256
370
   -1
100
AcDbLine
 10
283.582
 20
21.0031
 11
283.582
 21
22.0031
  0
LINE
  5
217
100
AcDbEntity
  8
0
  6
ByBlock
 62
  256
370
   -1
100
AcDbLine
 10
283.582
 20
22.0031
 11
278.582
 21
22.0031
  0
LINE
  5
218
100
AcDbEntity
  8
0
  6
ByBlock
 62
  256
370
   -1
100
AcDbLine
 10
252.387
 20
36.0975
 11
252.387
 21
37.0975
  0
LINE
  5
219
100
AcDbEntity
  8
0
  6
ByBlock
 62
  256
370
   -1
100
AcDbLine
 10
252.387
 20
37.0975
 11
257.387
 21
37.0975
  0
LINE
  5
21A
100
AcDbEntity
  8
0
  6
ByBlock
 62
  256
370
   -1
100
AcDbLine
 10
257.387
 20
37.0975
 11
257.387
 21
36.0975
  0
LINE
  5
21B
100
AcDbEntity
  8
0
  6
ByBlock
 62
  256
370
   -1
100
AcDbLine
 10
257.387
 20
36.0975
 11
252.387
 21
36.0975
  0
LINE
  5
21C
100
AcDbEntity
  8
0
  6
ByBlock
 62
  256
370
   -1
100
AcDbLine
 10
252.387
 20
22.0982
 11
252.387
 21
21.0982
  0
LINE
  5
21D
100
AcDbEntity
  8
0
  6
ByBlock
 62
  256
370
   -1
100
AcDbLine
 10
252.387
 20
21.0982
 11
257.387
 21
21.0982
  0
LINE
  5
21E
100
AcDbEntity
  8
0
  6
ByBlock
 62
  256
370
   -1
100
AcDbLine
 10
257.387
 20
21.0982
 11
257.387
 21
22.0982
  0
LINE
  5
21F
100
AcDbEntity
  8
0
  6
ByBlock
 62
  256
370
   -1
100
AcDbLine
 10
257.387
 20
22.0982
 11
252.387
 21
22.0982
  0
LINE
  5
220
100
AcDbEntity
  8
0
  6
ByBlock
 62
  256
370
   -1
100
AcDbLine
 10
226.195
 20
36.0975
 11
226.195
 21
37.0975
  0
LINE
  5
221
100
AcDbEntity
  8
0
  6
ByBlock
 62
  256
370
   -1
100
AcDbLine
 10
226.195
 20
37.0975
 11
231.195
 21
37.0975
  0
LINE
  5
222
100
AcDbEntity
  8
0
  6
ByBlock
 62
  256
370
   -1
100
AcDbLine
 10
231.195
 20
37.0975
 11
231.195
 21
36.0975
  0
LINE
  5
223
100
AcDbEntity
  8
0
  6
ByBlock
 62
  256
370
   -1
100
AcDbLine
 10
231.195
 20
36.0975
 11
226.195
 21
36.0975
  0
LINE
  5
224
100
AcDbEntity
  8
0
  6
ByBlock
 62
  256
370
   -1
100
AcDbLine
 10
226.195
 20
22.0982
 11
226.195
 21
21.0982
  0
LINE
  5
225
100
AcDbEntity
  8
0
  6
ByBlock
 62
  256
370
   -1
100
AcDbLine
 10
226.195
 20
21.0982
 11
231.195
 21
21.0982
  0
LINE
  5
226
100
AcDbEntity
  8
0
  6
ByBlock
 62
  256
370
   -1
100
AcDbLine
 10
231.195
 20
21.0982
 11
231.195
 21
22.0982
  0
LINE
  5
227
100
AcDbEntity
  8
0
  6
ByBlock
 62
  256
370
   -1
100
AcDbLine
 10
231.195
 20
22.0982
 11
226.195
 21
22.0982
  0
LINE
  5
228
100
AcDbEntity
  8
0
  6
ByBlock
 62
  256
370
   -1
100
AcDbLine
 10
207.143
 20
40.86000000000001
 11
207.143
 21
41.86000000000001
  0
LINE
  5
229
100
AcDbEntity
  8
0
  6
ByBlock
 62
  256
370
   -1
100
AcDbLine
 10
207.143
 20
41.86000000000001
 11
212.143
 21
41.86000000000001
  0
LINE
  5
22A
100
AcDbEntity
  8
0
  6
ByBlock
 62
  256
370
   -1
100
AcDbLine
 10
212.143
 20
41.86000000000001
 11
212.143
 21
40.86000000000001
  0
LINE
  5
22B
100
AcDbEntity
  8
0
  6
ByBlock
 62
  256
370
   -1
100
AcDbLine
 10
212.143
 20
40.86000000000001
 11
207.143
 21
40.86000000000001
  0
LINE
  5
22C
100
AcDbEntity
  8
0
  6
ByBlock
 62
  256
370
   -1
100
AcDbLine
 10
207.143
 20
26.8607
 11
207.143
 21
25.8607
  0
LINE
  5
22D
100
AcDbEntity
  8
0
  6
ByBlock
 62
  256
370
   -1
100
AcDbLine
 10
207.143
 20
25.8607
 11
212.143
 21
25.8607
  0
LINE
  5
22E
100
AcDbEntity
  8
0
  6
ByBlock
 62
  256
370
   -1
100
AcDbLine
 10
212.143
 20
25.8607
 11
212.143
 21
26.8607
  0
LINE
  5
22F
100
AcDbEntity
  8
0
  6
ByBlock
 62
  256
370
   -1
100
AcDbLine
 10
212.143
 20
26.8607
 11
207.143
 21
26.8607
  0
LINE
  5
230
100
AcDbEntity
  8
0
  6
ByBlock
 62
  256
370
   -1
100
AcDbLine
 10
188.095
 20
43.24130000000001
 11
188.095
 21
44.24130000000001
  0
LINE
  5
231
100
AcDbEntity
  8
0
  6
ByBlock
 62
  256
370
   -1
100
AcDbLine
 10
188.095
 20
44.24130000000001
 11
193.095
 21
44.24130000000001
  0
LINE
  5
232
100
AcDbEntity
  8
0
  6
ByBlock
 62
  256
370
   -1
100
AcDbLine
 10
193.095
 20
44.24130000000001
 11
193.095
 21
43.24130000000001
  0
LINE
  5
233
100
AcDbEntity
  8
0
  6
ByBlock
 62
  256
370
   -1
100
AcDbLine
 10
193.095
 20
43.24130000000001
 11
188.095
 21
43.24130000000001
  0
LINE
  5
234
100
AcDbEntity
  8
0
  6
ByBlock
 62
  256
370
   -1
100
AcDbLine
 10
188.095
 20
29.242
 11
188.095
 21
28.242
  0
LINE
  5
235
100
AcDbEntity
  8
0
  6
ByBlock
 62
  256
370
   -1
100
AcDbLine
 10
188.095
 20
28.242
 11
193.095
 21
28.242
  0
LINE
  5
236
100
AcDbEntity
  8
0
  6
ByBlock
 62
  256
370
   -1
100
AcDbLine
 10
193.095
 20
28.242
 11
193.095
 21
29.242
  0
LINE
  5
237
100
AcDbEntity
  8
0
  6
ByBlock
 62
  256
370
   -1
100
AcDbLine
 10
193.095
 20
29.242
 11
188.095
 21
29.242
  0
LINE
  5
238
100
AcDbEntity
  8
0
  6
ByBlock
 62
  256
370
   -1
100
AcDbLine
 10
169.045
 20
40.86000000000001
 11
169.045
 21
41.86000000000001
  0
LINE
  5
239
100
AcDbEntity
  8
0
  6
ByBlock
 62
  256
370
   -1
100
AcDbLine
 10
169.045
 20
41.86000000000001
 11
174.045
 21
41.86000000000001
  0
LINE
  5
23A
100
AcDbEntity
  8
0
  6
ByBlock
 62
  256
370
   -1
100
AcDbLine
 10
174.045
 20
41.86000000000001
 11
174.045
 21
40.86000000000001
  0
LINE
  5
23B
100
AcDbEntity
  8
0
  6
ByBlock
 62
  256
370
   -1
100
AcDbLine
 10
174.045
 20
40.86000000000001
 11
169.045
 21
40.86000000000001
  0
LINE
  5
23C
100
AcDbEntity
  8
0
  6
ByBlock
 62
  256
370
   -1
100
AcDbLine
 10
169.045
 20
26.8607
 11
169.045
 21
25.8607
  0
LINE
  5
23D
100
AcDbEntity
  8
0
  6
ByBlock
 62
  256
370
   -1
100
AcDbLine
 10
169.045
 20
25.8607
 11
174.045
 21
25.8607
  0
LINE
  5
23E
100
AcDbEntity
  8
0
  6
ByBlock
 62
  256
370
   -1
100
AcDbLine
 10
174.045
 20
25.8607
 11
174.045
 21
26.8607
  0
LINE
  5
23F
100
AcDbEntity
  8
0
  6
ByBlock
 62
  256
370
   -1
100
AcDbLine
 10
174.045
 20
26.8607
 11
169.045
 21
26.8607
  0
LINE
  5
240
100
AcDbEntity
  8
0
  6
ByBlock
 62
  256
370
   -1
100
AcDbLine
 10
149.995
 20
38.47880000000001
 11
149.995
 21
39.47880000000001
  0
LINE
  5
241
100
AcDbEntity
  8
0
  6
ByBlock
 62
  256
370
   -1
100
AcDbLine
 10
149.995
 20
39.47880000000001
 11
154.995
 21
39.47880000000001
  0
LINE
  5
242
100
AcDbEntity
  8
0
  6
ByBlock
 62
  256
370
   -1
100
AcDbLine
 10
154.995
 20
39.47880000000001
 11
154.995
 21
38.47880000000001
  0
LINE
  5
243
100
AcDbEntity
  8
0
  6
ByBlock
 62
  256
370
   -1
100
AcDbLine
 10
154.995
 20
38.47880000000001
 11
149.995
 21
38.47880000000001
  0
LINE
  5
244
100
AcDbEntity
  8
0
  6
ByBlock
 62
  256
370
   -1
100
AcDbLine
 10
149.995
 20
24.4795
 11
149.995
 21
23.4795
  0
LINE
  5
245
100
AcDbEntity
  8
0
  6
ByBlock
 62
  256
370
   -1
100
AcDbLine
 10
149.995
 20
23.4795
 11
154.995
 21
23.4795
  0
LINE
  5
246
100
AcDbEntity
  8
0
  6
ByBlock
 62
  256
370
   -1
100
AcDbLine
 10
154.995
 20
23.4795
 11
154.995
 21
24.4795
  0
LINE
  5
247
100
AcDbEntity
  8
0
  6
ByBlock
 62
  256
370
   -1
100
AcDbLine
 10
154.995
 20
24.4795
 11
149.995
 21
24.4795
  0
LINE
  5
248
100
AcDbEntity
  8
0
  6
ByBlock
 62
  256
370
   -1
100
AcDbLine
 10
159.52
 20
17.04752000000001
 11
159.52
 21
18.04752000000001
  0
LINE
  5
249
100
AcDbEntity
  8
0
  6
ByBlock
 62
  256
370
   -1
100
AcDbLine
 10
159.52
 20
18.04752000000001
 11
164.52
 21
18.04752000000001
  0
LINE
  5
24A
100
AcDbEntity
  8
0
  6
ByBlock
 62
  256
370
   -1
100
AcDbLine
 10
164.52
 20
18.04752000000001
 11
164.52
 21
17.04752000000001
  0
LINE
  5
24B
100
AcDbEntity
  8
0
  6
ByBlock
 62
  256
370
   -1
100
AcDbLine
 10
164.52
 20
17.04752000000001
 11
159.52
 21
17.04752000000001
  0
LINE
  5
24C
100
AcDbEntity
  8
0
  6
ByBlock
 62
  256
370
   -1
100
AcDbLine
 10
159.52
 20
3.04822
 11
159.52
 21
2.04822
  0
LINE
  5
24D
100
AcDbEntity
  8
0
  6
ByBlock
 62
  256
370
   -1
100
AcDbLine
 10
159.52
 20
2.04822
 11
164.52
 21
2.04822
  0
LINE
  5
24E
100
AcDbEntity
  8
0
  6
ByBlock
 62
  256
370
   -1
100
AcDbLine
 10
164.52
 20
2.04822
 11
164.52
 21
3.04822
  0
LINE
  5
24F
100
AcDbEntity
  8
0
  6
ByBlock
 62
  256
370
   -1
100
AcDbLine
 10
164.52
 20
3.04822
 11
159.52
 21
3.04822
  0
LINE
  5
250
100
AcDbEntity
  8
0
  6
ByBlock
 62
  256
370
   -1
100
AcDbLine
 10
190.476
 20
17.04752000000001
 11
190.476
 21
18.04752000000001
  0
LINE
  5
251
100
AcDbEntity
  8
0
  6
ByBlock
 62
  256
370
   -1
100
AcDbLine
 10
190.476
 20
18.04752000000001
 11
195.476
 21
18.04752000000001
  0
LINE
  5
252
100
AcDbEntity
  8
0
  6
ByBlock
 62
  256
370
   -1
100
AcDbLine
 10
195.476
 20
18.04752000000001
 11
195.476
 21
17.04752000000001
  0
LINE
  5
253
100
AcDbEntity
  8
0
  6
ByBlock
 62
  256
370
   -1
100
AcDbLine
 10
195.476
 20
17.04752000000001
 11
190.476
 21
17.04752000000001
  0
LINE
  5
254
100
AcDbEntity
  8
0
  6
ByBlock
 62
  256
370
   -1
100
AcDbLine
 10
190.476
 20
3.04822
 11
190.476
 21
2.04822
  0
LINE
  5
255
100
AcDbEntity
  8
0
  6
ByBlock
 62
  256
370
   -1
100
AcDbLine
 10
190.476
 20
2.04822
 11
195.476
 21
2.04822
  0
LINE
  5
256
100
AcDbEntity
  8
0
  6
ByBlock
 62
  256
370
   -1
100
AcDbLine
 10
195.476
 20
2.04822
 11
195.476
 21
3.04822
  0
LINE
  5
257
100
AcDbEntity
  8
0
  6
ByBlock
 62
  256
370
   -1
100
AcDbLine
 10
195.476
 20
3.04822
 11
190.476
 21
3.04822
  0
LINE
  5
258
100
AcDbEntity
  8
0
  6
ByBlock
 62
  256
370
   -1
100
AcDbLine
 10
214.287
 20
16.95243000000001
 11
214.287
 21
17.95243000000001
  0
LINE
  5
259
100
AcDbEntity
  8
0
  6
ByBlock
 62
  256
370
   -1
100
AcDbLine
 10
214.287
 20
17.95243000000001
 11
219.287
 21
17.95243000000001
  0
LINE
  5
25A
100
AcDbEntity
  8
0
  6
ByBlock
 62
  256
370
   -1
100
AcDbLine
 10
219.287
 20
17.95243000000001
 11
219.287
 21
16.95243000000001
  0
LINE
  5
25B
100
AcDbEntity
  8
0
  6
ByBlock
 62
  256
370
   -1
100
AcDbLine
 10
219.287
 20
16.95243000000001
 11
214.287
 21
16.95243000000001
  0
LINE
  5
25C
100
AcDbEntity
  8
0
  6
ByBlock
 62
  256
370
   -1
100
AcDbLine
 10
214.287
 20
2.95313
 11
214.287
 21
1.95313
  0
LINE
  5
25D
100
AcDbEntity
  8
0
  6
ByBlock
 62
  256
370
   -1
100
AcDbLine
 10
214.287
 20
1.95313
 11
219.287
 21
1.95313
  0
LINE
  5
25E
100
AcDbEntity
  8
0
  6
ByBlock
 62
  256
370
   -1
100
AcDbLine
 10
219.287
 20
1.95313
 11
219.287
 21
2.95313
  0
LINE
  5
25F
100
AcDbEntity
  8
0
  6
ByBlock
 62
  256
370
   -1
100
AcDbLine
 10
219.287
 20
2.95313
 11
214.287
 21
2.95313
  0
LINE
  5
260
100
AcDbEntity
  8
0
  6
ByBlock
 62
  256
370
   -1
100
AcDbLine
 10
238.101
 20
16.95243000000001
 11
238.101
 21
17.95243000000001
  0
LINE
  5
261
100
AcDbEntity
  8
0
  6
ByBlock
 62
  256
370
   -1
100
AcDbLine
 10
238.101
 20
17.95243000000001
 11
243.101
 21
17.95243000000001
  0
LINE
  5
262
100
AcDbEntity
  8
0
  6
ByBlock
 62
  256
370
   -1
100
AcDbLine
 10
243.101
 20
17.95243000000001
 11
243.101
 21
16.95243000000001
  0
LINE
  5
263
100
AcDbEntity
  8
0
  6
ByBlock
 62
  256
370
   -1
100
AcDbLine
 10
243.101
 20
16.95243000000001
 11
238.101
 21
16.95243000000001
  0
LINE
  5
264
100
AcDbEntity
  8
0
  6
ByBlock
 62
  256
370
   -1
100
AcDbLine
 10
238.101
 20
2.95313
 11
238.101
 21
1.95313
  0
LINE
  5
265
100
AcDbEntity
  8
0
  6
ByBlock
 62
  256
370
   -1
100
AcDbLine
 10
238.101
 20
1.95313
 11
243.101
 21
1.95313
  0
LINE
  5
266
100
AcDbEntity
  8
0
  6
ByBlock
 62
  256
370
   -1
100
AcDbLine
 10
243.101
 20
1.95313
 11
243.101
 21
2.95313
  0
LINE
  5
267
100
AcDbEntity
  8
0
  6
ByBlock
 62
  256
370
   -1
100
AcDbLine
 10
243.101
 20
2.95313
 11
238.101
 21
2.95313
  0
LINE
  5
268
100
AcDbEntity
  8
0
  6
ByBlock
 62
  256
370
   -1
100
AcDbLine
 10
259.532
 20
16.95243000000001
 11
259.532
 21
17.95243000000001
  0
LINE
  5
269
100
AcDbEntity
  8
0
  6
ByBlock
 62
  256
370
   -1
100
AcDbLine
 10
259.532
 20
17.95243000000001
 11
264.532
 21
17.95243000000001
  0
LINE
  5
26A
100
AcDbEntity
  8
0
  6
ByBlock
 62
  256
370
   -1
100
AcDbLine
 10
264.532
 20
17.95243000000001
 11
264.532
 21
16.95243000000001
  0
LINE
  5
26B
100
AcDbEntity
  8
0
  6
ByBlock
 62
  256
370
   -1
100
AcDbLine
 10
264.532
 20
16.95243000000001
 11
259.532
 21
16.95243000000001
  0
LINE
  5
26C
100
AcDbEntity
  8
0
  6
ByBlock
 62
  256
370
   -1
100
AcDbLine
 10
259.532
 20
2.95313
 11
259.532
 21
1.95313
  0
LINE
  5
26D
100
AcDbEntity
  8
0
  6
ByBlock
 62
  256
370
   -1
100
AcDbLine
 10
259.532
 20
1.95313
 11
264.532
 21
1.95313
  0
LINE
  5
26E
100
AcDbEntity
  8
0
  6
ByBlock
 62
  256
370
   -1
100
AcDbLine
 10
264.532
 20
1.95313
 11
264.532
 21
2.95313
  0
LINE
  5
26F
100
AcDbEntity
  8
0
  6
ByBlock
 62
  256
370
   -1
100
AcDbLine
 10
264.532
 20
2.95313
 11
259.532
 21
2.95313
  0
LINE
  5
270
100
AcDbEntity
  8
0
  6
ByBlock
 62
  256
370
   -1
100
AcDbLine
 10
278.582
 20
16.95243000000001
 11
278.582
 21
17.95243000000001
  0
LINE
  5
271
100
AcDbEntity
  8
0
  6
ByBlock
 62
  256
370
   -1
100
AcDbLine
 10
278.582
 20
17.95243000000001
 11
283.582
 21
17.95243000000001
  0
LINE
  5
272
100
AcDbEntity
  8
0
  6
ByBlock
 62
  256
370
   -1
100
AcDbLine
 10
283.582
 20
17.95243000000001
 11
283.582
 21
16.95243000000001
  0
LINE
  5
273
100
AcDbEntity
  8
0
  6
ByBlock
 62
  256
370
   -1
100
AcDbLine
 10
283.582
 20
16.95243000000001
 11
278.582
 21
16.95243000000001
  0
LINE
  5
274
100
AcDbEntity
  8
0
  6
ByBlock
 62
  256
370
   -1
100
AcDbLine
 10
278.582
 20
2.95313
 11
278.582
 21
1.95313
  0
LINE
  5
275
100
AcDbEntity
  8
0
  6
ByBlock
 62
  256
370
   -1
100
AcDbLine
 10
278.582
 20
1.95313
 11
283.582
 21
1.95313
  0
LINE
  5
276
100
AcDbEntity
  8
0
  6
ByBlock
 62
  256
370
   -1
100
AcDbLine
 10
283.582
 20
1.95313
 11
283.582
 21
2.95313
  0
LINE
  5
277
100
AcDbEntity
  8
0
  6
ByBlock
 62
  256
370
   -1
100
AcDbLine
 10
283.582
 20
2.95313
 11
278.582
 21
2.95313
  0
LINE
  5
278
100
AcDbEntity
  8
0
  6
ByBlock
 62
  256
370
   -1
100
AcDbLine
 10
297.632
 20
16.95243000000001
 11
297.632
 21
17.95243000000001
  0
LINE
  5
279
100
AcDbEntity
  8
0
  6
ByBlock
 62
  256
370
   -1
100
AcDbLine
 10
297.632
 20
17.95243000000001
 11
302.632
 21
17.95243000000001
  0
LINE
  5
27A
100
AcDbEntity
  8
0
  6
ByBlock
 62
  256
370
   -1
100
AcDbLine
 10
302.632
 20
17.95243000000001
 11
302.632
 21
16.95243000000001
  0
LINE
  5
27B
100
AcDbEntity
  8
0
  6
ByBlock
 62
  256
370
   -1
100
AcDbLine
 10
302.632
 20
16.95243000000001
 11
297.632
 21
16.95243000000001
  0
LINE
  5
27C
100
AcDbEntity
  8
0
  6
ByBlock
 62
  256
370
   -1
100
AcDbLine
 10
297.632
 20
2.95313
 11
297.632
 21
1.95313
  0
LINE
  5
27D
100
AcDbEntity
  8
0
  6
ByBlock
 62
  256
370
   -1
100
AcDbLine
 10
297.632
 20
1.95313
 11
302.632
 21
1.95313
  0
LINE
  5
27E
100
AcDbEntity
  8
0
  6
ByBlock
 62
  256
370
   -1
100
AcDbLine
 10
302.632
 20
1.95313
 11
302.632
 21
2.95313
  0
LINE
  5
27F
100
AcDbEntity
  8
0
  6
ByBlock
 62
  256
370
   -1
100
AcDbLine
 10
302.632
 20
2.95313
 11
297.632
 21
2.95313
  0
LINE
  5
280
100
AcDbEntity
  8
0
  6
ByLayer
 62
    0
370
   -1
100
AcDbLine
 10
148.47
 20
15.5787
 11
148.47
 21
16.77897
  0
LINE
  5
281
100
AcDbEntity
  8
0
  6
ByLayer
 62
    0
370
   -1
100
AcDbLine
 10
148.47
 20
16.77897
 11
151.769
 21
16.77897
  0
LINE
  5
282
100
AcDbEntity
  8
0
  6
ByLayer
 62
    0
370
   -1
100
AcDbLine
 10
151.769
 20
16.77897
 11
151.769
 21
15.5787
  0
LINE
  5
283
100
AcDbEntity
  8
0
  6
ByBlock
 62
  256
370
   -1
100
AcDbLine
 10
148.47
 20
15.5787
 11
151.769
 21
15.5787
  0
LINE
  5
284
100
AcDbEntity
  8
0
  6
ByLayer
 62
    0
370
   -1
100
AcDbLine
 10
172.27
 20
15.5787
 11
172.27
 21
16.77897
  0
LINE
  5
285
100
AcDbEntity
  8
0
  6
ByLayer
 62
    0
370
   -1
100
AcDbLine
 10
172.27
 20
16.77897
 11
175.569
 21
16.77897
  0
LINE
  5
286
100
AcDbEntity
  8
0
  6
ByLayer
 62
    0
370
   -1
100
AcDbLine
 10
175.569
 20
16.77897
 11
175.569
 21
15.5787
  0
LINE
  5
287
100
AcDbEntity
  8
0
  6
ByBlock
 62
  256
370
   -1
100
AcDbLine
 10
172.27
 20
15.5787
 11
175.569
 21
15.5787
  0
LINE
  5
288
100
AcDbEntity
  8
0
  6
ByLayer
 62
    0
370
   -1
100
AcDbLine
 10
265.151
 20
53.6787
 11
265.151
 21
54.87897
  0
LINE
  5
289
100
AcDbEntity
  8
0
  6
ByLayer
 62
    0
370
   -1
100
AcDbLine
 10
265.151
 20
54.87897
 11
268.45
 21
54.87897
  0
LINE
  5
28A
100
AcDbEntity
  8
0
  6
ByLayer
 62
    0
370
   -1
100
AcDbLine
 10
268.45
 20
54.87897
 11
268.45
 21
53.67870000000001
  0
LINE
  5
28B
100
AcDbEntity
  8
0
  6
ByBlock
 62
  256
370
   -1
100
AcDbLine
 10
265.151
 20
53.6787
 11
268.45
 21
53.6787
  0
LINE
  5
28C
100
AcDbEntity
  8
0
  6
ByLayer
 62
    0
370
   -1
100
AcDbLine
 10
288.951
 20
53.67870000000001
 11
288.951
 21
54.87897000000001
  0
LINE
  5
28D
100
AcDbEntity
  8
0
  6
ByLayer
 62
    0
370
   -1
100
AcDbLine
 10
288.951
 20
54.87897000000001
 11
292.25
 21
54.87897000000001
  0
LINE
  5
28E
100
AcDbEntity
  8
0
  6
ByLayer
 62
    0
370
   -1
100
AcDbLine
 10
292.25
 20
54.87897000000001
 11
292.25
 21
53.67870000000001
  0
LINE
  5
28F
100
AcDbEntity
  8
0
  6
ByBlock
 62
  256
370
   -1
100
AcDbLine
 10
288.951
 20
53.67870000000001
 11
292.25
 21
53.67870000000001
  0
LINE
  5
290
100
AcDbEntity
  8
0
  6
ByLayer
 62
    0
370
   -1
100
AcDbLine
 10
281.8200000000001
 20
91.7787
 11
281.8200000000001
 21
92.97897
  0
LINE
  5
291
100
AcDbEntity
  8
0
  6
ByLayer
 62
    0
370
   -1
100
AcDbLine
 10
281.8200000000001
 20
92.97897
 11
285.119
 21
92.97897
  0
LINE
  5
292
100
AcDbEntity
  8
0
  6
ByLayer
 62
    0
370
   -1
100
AcDbLine
 10
285.119
 20
92.97897
 11
285.119
 21
91.7787
  0
LINE
  5
293
100
AcDbEntity
  8
0
  6
ByBlock
 62
  256
370
   -1
100
AcDbLine
 10
281.8200000000001
 20
91.7787
 11
285.119
 21
91.7787
  0
LINE
  5
294
100
AcDbEntity
  8
0
  6
ByLayer
 62
    0
370
   -1
100
AcDbLine
 10
305.62
 20
91.7787
 11
305.62
 21
92.97897
  0
LINE
  5
295
100
AcDbEntity
  8
0
  6
ByLayer
 62
    0
370
   -1
100
AcDbLine
 10
305.62
 20
92.97897
 11
308.919
 21
92.97897
  0
LINE
  5
296
100
AcDbEntity
  8
0
  6
ByLayer
 62
    0
370
   -1
100
AcDbLine
 10
308.919
 20
92.97897
 11
308.919
 21
91.7787
  0
LINE
  5
297
100
AcDbEntity
  8
0
  6
ByBlock
 62
  256
370
   -1
100
AcDbLine
 10
305.62
 20
91.7787
 11
308.919
 21
91.7787
  0
LINE
  5
298
100
AcDbEntity
  8
0
  6
ByBlock
 62
  256
370
   -1
100
AcDbLine
 10
285.9695
 20
101.84805
 11
285.9695
 21
119.62805
  0
CIRCLE
  5
299
100
AcDbEntity
  8
0
  6
ByBlock
 62
  256
370
   -1
100
AcDbCircle
 10
315.1795
 20
118.35805
 40
0.8
  0
CIRCLE
  5
29A
100
AcDbEntity
  8
0
  6
ByBlock
 62
  256
370
   -1
100
AcDbCircle
 10
312.6395
 20
118.35805
 40
0.8
  0
CIRCLE
  5
29B
100
AcDbEntity
  8
0
  6
ByBlock
 62
  256
370
   -1
100
AcDbCircle
 10
310.0995
 20
118.35805
 40
0.8
  0
CIRCLE
  5
29C
100
AcDbEntity
  8
0
  6
ByBlock
 62
  256
370
   -1
100
AcDbCircle
 10
307.5595
 20
118.35805
 40
0.8
  0
CIRCLE
  5
29D
100
AcDbEntity
  8
0
  6
ByBlock
 62
  256
370
   -1
100
AcDbCircle
 10
305.0195
 20
118.35805
 40
0.8
  0
CIRCLE
  5
29E
100
AcDbEntity
  8
0
  6
ByBlock
 62
  256
370
   -1
100
AcDbCircle
 10
302.4795
 20
118.35805
 40
0.8
  0
CIRCLE
  5
29F
100
AcDbEntity
  8
0
  6
ByBlock
 62
  256
370
   -1
100
AcDbCircle
 10
299.9395
 20
118.35805
 40
0.8
  0
CIRCLE
  5
2A0
100
AcDbEntity
  8
0
  6
ByBlock
 62
  256
370
   -1
100
AcDbCircle
 10
297.3995
 20
118.35805
 40
0.8
  0
CIRCLE
  5
2A1
100
AcDbEntity
  8
0
  6
ByBlock
 62
  256
370
   -1
100
AcDbCircle
 10
294.8595
 20
118.35805
 40
0.8
  0
CIRCLE
  5
2A2
100
AcDbEntity
  8
0
  6
ByBlock
 62
  256
370
   -1
100
AcDbCircle
 10
292.3194999999999
 20
118.35805
 40
0.8
  0
CIRCLE
  5
2A3
100
AcDbEntity
  8
0
  6
ByBlock
 62
  256
370
   -1
100
AcDbCircle
 10
289.7795000000001
 20
118.35805
 40
0.8
  0
CIRCLE
  5
2A4
100
AcDbEntity
  8
0
  6
ByBlock
 62
  256
370
   -1
100
AcDbCircle
 10
287.2395000000001
 20
118.35805
 40
0.8
  0
CIRCLE
  5
2A5
100
AcDbEntity
  8
0
  6
ByBlock
 62
  256
370
   -1
100
AcDbCircle
 10
315.1795
 20
103.11805
 40
0.8
  0
CIRCLE
  5
2A6
100
AcDbEntity
  8
0
  6
ByBlock
 62
  256
370
   -1
100
AcDbCircle
 10
312.6395
 20
103.11805
 40
0.8
  0
CIRCLE
  5
2A7
100
AcDbEntity
  8
0
  6
ByBlock
 62
  256
370
   -1
100
AcDbCircle
 10
310.0995
 20
103.11805
 40
0.8
  0
CIRCLE
  5
2A8
100
AcDbEntity
  8
0
  6
ByBlock
 62
  256
370
   -1
100
AcDbCircle
 10
307.5595
 20
103.11805
 40
0.8
  0
CIRCLE
  5
2A9
100
AcDbEntity
  8
0
  6
ByBlock
 62
  256
370
   -1
100
AcDbCircle
 10
305.0195
 20
103.11805
 40
0.8
  0
CIRCLE
  5
2AA
100
AcDbEntity
  8
0
  6
ByBlock
 62
  256
370
   -1
100
AcDbCircle
 10
302.4795
 20
103.11805
 40
0.8
  0
CIRCLE
  5
2AB
100
AcDbEntity
  8
0
  6
ByBlock
 62
  256
370
   -1
100
AcDbCircle
 10
299.9395
 20
103.11805
 40
0.8
  0
CIRCLE
  5
2AC
100
AcDbEntity
  8
0
  6
ByBlock
 62
  256
370
   -1
100
AcDbCircle
 10
297.3995
 20
103.11805
 40
0.8
  0
CIRCLE
  5
2AD
100
AcDbEntity
  8
0
  6
ByBlock
 62
  256
370
   -1
100
AcDbCircle
 10
294.8595
 20
103.11805
 40
0.8
  0
CIRCLE
  5
2AE
100
AcDbEntity
  8
0
  6
ByBlock
 62
  256
370
   -1
100
AcDbCircle
 10
292.3194999999999
 20
103.11805
 40
0.8
  0
CIRCLE
  5
2AF
100
AcDbEntity
  8
0
  6
ByBlock
 62
  256
370
   -1
100
AcDbCircle
 10
289.7795000000001
 20
103.11805
 40
0.8
  0
CIRCLE
  5
2B0
100
AcDbEntity
  8
0
  6
ByBlock
 62
  256
370
   -1
100
AcDbCircle
 10
287.2395000000001
 20
103.11805
 40
0.8
  0
LINE
  5
2B1
100
AcDbEntity
  8
0
  6
ByBlock
 62
  256
370
   -1
100
AcDbLine
 10
285.9695
 20
119.62805
 11
319.4695
 21
119.62805
  0
LINE
  5
2B2
100
AcDbEntity
  8
0
  6
ByBlock
 62
  256
370
   -1
100
AcDbLine
 10
285.9695
 20
101.84805
 11
319.4695
 21
101.84805
  0
LINE
  5
2B3
100
AcDbEntity
  8
0
  6
ByBlock
 62
  256
370
   -1
100
AcDbLine
 10
319.4695
 20
101.84805
 11
319.4695
 21
106.92805
  0
LINE
  5
2B4
100
AcDbEntity
  8
0
  6
ByBlock
 62
  256
370
   -1
100
AcDbLine
 10
319.4695
 20
114.54805
 11
319.4695
 21
119.62805
  0
LINE
  5
2B5
100
AcDbEntity
  8
0
  6
ByBlock
 62
  256
370
   -1
100
AcDbLine
 10
319.4695
 20
106.92805
 11
320.9695
 21
106.92805
  0
LINE
  5
2B6
100
AcDbEntity
  8
0
  6
ByBlock
 62
  256
370
   -1
100
AcDbLine
 10
320.9695
 20
106.92805
 11
320.9695
 21
114.54805
  0
LINE
  5
2B7
100
AcDbEntity
  8
0
  6
ByBlock
 62
  256
370
   -1
100
AcDbLine
 10
320.9695
 20
114.54805
 11
319.4695
 21
114.54805
  0
LINE
  5
2B8
100
AcDbEntity
  8
0
  6
ByBlock
 62
  256
370
   -1
100
AcDbLine
 10
322.4695
 20
122.62805
 11
134.8945
 21
122.62805
  0
LINE
  5
2B9
100
AcDbEntity
  8
0
  6
ByBlock
 62
  256
370
   -1
100
AcDbLine
 10
134.8945
 20
122.62805
 11
134.8945
 21
-7.55134
  0
LINE
  5
2BA
100
AcDbEntity
  8
0
  6
ByBlock
 62
  256
370
   -1
100
AcDbLine
 10
134.8945
 20
-7.55134
 11
322.4695
 21
-7.55134
  0
LINE
  5
2BB
100
AcDbEntity
  8
0
  6
ByBlock
 62
  256
370
   -1
100
AcDbLine
 10
322.4695
 20
-7.55134
 11
322.4695
 21
122.62805
  0
LINE
  5
2BC
100
AcDbEntity
  8
0
  6
ByBlock
 62
  256
370
   -1
100
AcDbLine
 10
141.8945
 20
115.62805
 11
141.8945
 21
120.62805
  0
LINE
  5
2BD
100
AcDbEntity
  8
0
  6
ByBlock
 62
  256
370
   -1
100
AcDbLine
 10
141.8945
 20
115.62805
 11
136.8945
 21
115.62805
  0
LINE
  5
2BE
100
AcDbEntity
  8
0
  6
ByBlock
 62
  256
370
   -1
100
AcDbLine
 10
141.8945
 20
-0.5513399999999997
 11
136.8945
 21
-0.5513399999999991
  0
LINE
  5
2BF
100
AcDbEntity
  8
0
  6
ByBlock
 62
  256
370
   -1
100
AcDbLine
 10
141.8945
 20
-0.5513399999999997
 11
141.8945
 21
-5.55134
  0
LINE
  5
2C0
100
AcDbEntity
  8
0
  6
ByBlock
 62
  256
370
   -1
100
AcDbLine
 10
315.4695
 20
-0.5513399999999997
 11
315.4695
 21
-5.55134
  0
LINE
  5
2C1
100
AcDbEntity
  8
0
  6
ByBlock
 62
  256
370
   -1
100
AcDbLine
 10
315.4695
 20
-0.551339999999982
 11
320.4695
 21
-0.551339999999982
  0
LINE
  5
2C2
100
AcDbEntity
  8
0
  6
ByBlock
 62
  256
370
   -1
100
AcDbLine
 10
320.4695
 20
98.84805
 11
315.4695
 21
98.84805
  0
LINE
  5
2C3
100
AcDbEntity
  8
0
  6
ByBlock
 62
  256
370
   -1
100
AcDbLine
 10
315.4695
 20
98.84805
 11
315.4695
 21
91.84805
  0
LINE
  5
2C4
100
AcDbEntity
  8
0
  6
ByBlock
 62
  256
370
   -1
100
AcDbLine
 10
315.4695
 20
91.84805
 11
320.4695
 21
91.84805
  0
LINE
  5
2C5
100
AcDbEntity
  8
0
  6
ByBlock
 62
  256
370
   -1
100
AcDbLine
 10
282.9695
 20
120.62805
 11
282.9695
 21
115.62805
  0
LINE
  5
2C6
100
AcDbEntity
  8
0
  6
ByBlock
 62
  256
370
   -1
100
AcDbLine
 10
282.9695
 20
115.62805
 11
275.9695
 21
115.62805
  0
LINE
  5
2C7
100
AcDbEntity
  8
0
  6
ByBlock
 62
  256
370
   -1
100
AcDbLine
 10
275.9695
 20
115.62805
 11
275.9695
 21
120.62805
  0
LINE
  5
2C8
100
AcDbEntity
  8
0
  6
ByBlock
 62
  256
370
   -1
100
AcDbLine
 10
136.8945
 20
115.62805
 11
136.8945
 21
-0.5513399999999991
  0
LINE
  5
2C9
100
AcDbEntity
  8
0
  6
ByBlock
 62
  256
370
   -1
100
AcDbLine
 10
141.8945
 20
-5.55134
 11
315.4695
 21
-5.55134
  0
LINE
  5
2CA
100
AcDbEntity
  8
0
  6
ByBlock
 62
  256
370
   -1
100
AcDbLine
 10
320.4695
 20
-0.551339999999982
 11
320.4695
 21
91.84805
  0
LINE
  5
2CB
100
AcDbEntity
  8
0
  6
ByBlock
 62
  256
370
   -1
100
AcDbLine
 10
320.4695
 20
98.84805
 11
320.4695
 21
120.62805
  0
LINE
  5
2CC
100
AcDbEntity
  8
0
  6
ByBlock
 62
  256
370
   -1
100
AcDbLine
 10
320.4695
 20
120.62805
 11
282.9695
 21
120.62805
  0
LINE
  5
2CD
100
AcDbEntity
  8
0
  6
ByBlock
 62
  256
370
   -1
100
AcDbLine
 10
314.9695
 20
-5.05134
 11
314.9695
 21
-0.05133999999998196
  0
LINE
  5
2CE
100
AcDbEntity
  8
0
  6
ByBlock
 62
  256
370
   -1
100
AcDbLine
 10
314.9695
 20
-0.05133999999998196
 11
319.9695
 21
-0.05133999999998196
  0
LINE
  5
2CF
100
AcDbEntity
  8
0
  6
ByBlock
 62
  256
370
   -1
100
AcDbLine
 10
319.9695
 20
-0.05133999999998196
 11
319.9695
 21
91.34805
  0
LINE
  5
2D0
100
AcDbEntity
  8
0
  6
ByBlock
 62
  256
370
   -1
100
AcDbLine
 10
319.9695
 20
91.34805
 11
314.9695
 21
91.34805
  0
LINE
  5
2D1
100
AcDbEntity
  8
0
  6
ByBlock
 62
  256
370
   -1
100
AcDbLine
 10
314.9695
 20
91.34805
 11
314.9695
 21
99.34805
  0
LINE
  5
2D2
100
AcDbEntity
  8
0
  6
ByBlock
 62
  256
370
   -1
100
AcDbLine
 10
314.9695
 20
99.34805
 11
319.9695
 21
99.34805
  0
LINE
  5
2D3
100
AcDbEntity
  8
0
  6
ByBlock
 62
  256
370
   -1
100
AcDbLine
 10
319.9695
 20
99.34805
 11
319.9695
 21
120.12805
  0
LINE
  5
2D4
100
AcDbEntity
  8
0
  6
ByBlock
 62
  256
370
   -1
100
AcDbLine
 10
319.9695
 20
120.12805
 11
283.4695
 21
120.12805
  0
LINE
  5
2D5
100
AcDbEntity
  8
0
  6
ByBlock
 62
  256
370
   -1
100
AcDbLine
 10
283.4695
 20
120.12805
 11
283.4695
 21
115.12805
  0
LINE
  5
2D6
100
AcDbEntity
  8
0
  6
ByBlock
 62
  256
370
   -1
100
AcDbLine
 10
283.4695
 20
115.12805
 11
275.4695
 21
115.12805
  0
LINE
  5
2D7
100
AcDbEntity
  8
0
  6
ByBlock
 62
  256
370
   -1
100
AcDbLine
 10
275.4695
 20
115.12805
 11
275.4695
 21
120.12805
  0
LINE
  5
2D8
100
AcDbEntity
  8
0
  6
ByBlock
 62
  256
370
   -1
100
AcDbLine
 10
142.3945
 20
120.12805
 11
142.3945
 21
115.12805
  0
LINE
  5
2D9
100
AcDbEntity
  8
0
  6
ByBlock
 62
  256
370
   -1
100
AcDbLine
 10
142.3945
 20
115.12805
 11
137.3945
 21
115.12805
  0
LINE
  5
2DA
100
AcDbEntity
  8
0
  6
ByBlock
 62
  256
370
   -1
100
AcDbLine
 10
137.3945
 20
115.12805
 11
137.3945
 21
-0.05133999999999905
  0
LINE
  5
2DB
100
AcDbEntity
  8
0
  6
ByBlock
 62
  256
370
   -1
100
AcDbLine
 10
137.3945
 20
-0.05133999999999905
 11
142.3945
 21
-0.05133999999999972
  0
LINE
  5
2DC
100
AcDbEntity
  8
0
  6
ByBlock
 62
  256
370
   -1
100
AcDbLine
 10
142.3945
 20
-0.05133999999999972
 11
142.3945
 21
-5.05134
  0
LINE
  5
2DD
100
AcDbEntity
  8
0
  6
ByBlock
 62
  256
370
   -1
100
AcDbLine
 10
142.3945
 20
-5.05134
 11
314.9695
 21
-5.051339999999982
  0
CIRCLE
  5
2DE
100
AcDbEntity
  8
0
  6
ByBlock
 62
  256
370
   -1
100
AcDbCircle
 10
138.3945
 20
-4.05134
 40
2
  0
CIRCLE
  5
2DF
100
AcDbEntity
  8
0
  6
ByBlock
 62
  256
370
   -1
100
AcDbCircle
 10
138.3945
 20
119.12805
 40
2
  0
CIRCLE
  5
2E0
100
AcDbEntity
  8
0
  6
ByBlock
 62
  256
370
   -1
100
AcDbCircle
 10
279.4695
 20
119.12805
 40
2
  0
CIRCLE
  5
2E1
100
AcDbEntity
  8
0
  6
ByBlock
 62
  256
370
   -1
100
AcDbCircle
 10
318.9695
 20
95.34805
 40
2
  0
CIRCLE
  5
2E2
100
AcDbEntity
  8
0
  6
ByBlock
 62
  256
370
   -1
100
AcDbCircle
 10
318.9695
 20
-4.05134
 40
2
  0
LINE
  5
2E3
100
AcDbEntity
  8
0
  6
ByBlock
 62
  256
370
   -1
100
AcDbLine
 10
146.8945
 20
120.62805
 11
146.8945
 21
120.12805
  0
LINE
  5
2E4
100
AcDbEntity
  8
0
  6
ByBlock
 62
  256
370
   -1
100
AcDbLine
 10
146.8945
 20
120.12805
 11
180.9945
 21
120.12805
  0
LINE
  5
2E5
100
AcDbEntity
  8
0
  6
ByBlock
 62
  256
370
   -1
100
AcDbLine
 10
180.9945
 20
120.12805
 11
180.9945
 21
120.62805
  0
LINE
  5
2E6
100
AcDbEntity
  8
0
  6
ByBlock
 62
  256
370
   -1
100
AcDbLine
 10
180.9945
 20
107.99175
 11
180.9945
 21
120.12805
  0
LINE
  5
2E7
100
AcDbEntity
  8
0
  6
ByBlock
 62
  256
370
   -1
100
AcDbLine
 10
180.9945
 20
107.99175
 11
146.8945
 21
107.99175
  0
LINE
  5
2E8
100
AcDbEntity
  8
0
  6
ByBlock
 62
  256
370
   -1
100
AcDbLine
 10
146.8945
 20
107.99175
 11
146.8945
 21
120.12805
  0
LINE
  5
2E9
100
AcDbEntity
  8
0
  6
ByBlock
 62
  256
370
   -1
100
AcDbLine
 10
142.3945
 20
120.12805
 11
146.8945
 21
120.12805
  0
LINE
  5
2EA
100
AcDbEntity
  8
0
  6
ByBlock
 62
  256
370
   -1
100
AcDbLine
 10
180.9945
 20
120.12805
 11
275.4695
 21
120.12805
  0
LINE
  5
2EB
100
AcDbEntity
  8
0
  6
ByBlock
 62
  256
370
   -1
100
AcDbLine
 10
141.8945
 20
120.62805
 11
146.8945
 21
120.62805
  0
LINE
  5
2EC
100
AcDbEntity
  8
0
  6
ByBlock
 62
  256
370
   -1
100
AcDbLine
 10
146.8945
 20
120.62805
 11
180.9945
 21
120.62805
  0
LINE
  5
2ED
100
AcDbEntity
  8
0
  6
ByBlock
 62
  256
370
   -1
100
AcDbLine
 10
180.9945
 20
120.62805
 11
275.9695
 21
120.62805
  0
CIRCLE
  5
2EE
100
AcDbEntity
  8
0
  6
ByBlock
 62
  256
370
   -1
100
AcDbCircle
 10
142.8945
 20
102.72925
 40
2
  0
CIRCLE
  5
2EF
100
AcDbEntity
  8
0
  6
ByBlock
 62
  256
370
   -1
100
AcDbCircle
 10
142.8945
 20
102.72925
 40
1.6
  0
CIRCLE
  5
2F0
100
AcDbEntity
  8
0
  6
ByBlock
 62
  256
370
   -1
100
AcDbCircle
 10
314.9695
 20
4.948660000000018
 40
2
  0
CIRCLE
  5
2F1
100
AcDbEntity
  8
0
  6
ByBlock
 62
  256
370
   -1
100
AcDbCircle
 10
314.9695
 20
4.948660000000018
 40
1.6
  0
LINE
  5
2F2
100
AcDbEntity
  8
0
  6
ByBlock
 62
  256
370
   -1
100
AcDbLine
 10
142.8945
 20
0.3527799999999814
 11
147.8945
 21
0.3527799999999814
  0
CIRCLE
  5
2F3
100
AcDbEntity
  8
0
  6
ByBlock
 62
  256
370
   -1
100
AcDbCircle
 10
147.8945
 20
-2.347220000000019
 40
2
  0
CIRCLE
  5
2F4
100
AcDbEntity
  8
0
  6
ByBlock
 62
  256
370
   -1
100
AcDbCircle
 10
147.8945
 20
-2.347220000000019
 40
1.6
  0
CIRCLE
  5
2F5
100
AcDbEntity
  8
0
  6
ByBlock
 62
  256
370
   -1
100
AcDbCircle
 10
280.9695
 20
100.84805
 40
2
  0
CIRCLE
  5
2F6
100
AcDbEntity
  8
0
  6
ByBlock
 62
  256
370
   -1
100
AcDbCircle
 10
280.9695
 20
100.84805
 40
1.6
  0
ENDSEC
  0
SECTION
  2
OBJECTS
  0
DICTIONARY
  5
C
330
0
100
AcDbDictionary
281
    1
  3
ACAD_GROUP
350
D
  0
DICTIONARY
  5
D
330
C
100
AcDbDictionary
281
    1
  0
ENDSEC
  0
EOF
